<?xml version="1.0" encoding="utf-8"?>
<!-- Generator: Adobe Illustrator 19.1.0, SVG Export Plug-In . SVG Version: 6.00 Build 0)  -->
<svg version="1.1" xmlns="http://www.w3.org/2000/svg" xmlns:xlink="http://www.w3.org/1999/xlink" x="0px" y="0px"
	 viewBox="0 0 462.5 465.4" width="462.5" height="465.4" style="enable-background:new 0 0 462.5 465.4;" xml:space="preserve">
<style type="text/css">
	.st0{fill:#000000;}
</style>
<g id="Ebene_3">
</g>
<g id="Ebene_3_Kopie_Kopie">
	<path class="st0" d="M432.3,222.4c-2.4,0-4.7,0.5-7.1,0.6c-2.4,0-4.7,0.5-7.1,0.5c-2.4,0.1-4.7,0-7.1,0.1s-4.7-0.2-7.1-0.1
		s-4.7,0.4-7,0.5c-2.4,0.1-4.7,0.4-7,0.6c-2.3,0.2-4.7,0.1-7.1,0.3c-2.3,0.2-4.7,0-7.1,0.3c-2.3,0.2-4.7,0.8-7,1.1
		c-2.3,0.3-4.7,0.1-7.1,0.4c-1.1,0.1-2.3,0.4-3.4,0.7c-0.9,0.8-2,1.5-2.9,1.8c-0.7,0.2-1.2,0.1-1.8-0.1c-0.4-0.1-0.7-0.2-1.1-0.3
		c0,0,0,0,0,0c0,0,0,0,0,0c-0.1,0-0.1,0-0.2,0c-1.4,0.3-2.9,0.7-4.3,0.9c-2.5,0.4-4,2.2-3.7,4.7c0.4,2.3,1.9,4.3,5.4,3.9
		c0.2,0,4.1-0.8,6.4-1.1c2.3-0.3,4.6-0.6,6.9-0.9c1.8-0.2,3.5-0.5,5.3-0.8c0.7,0,1.3-0.1,2-0.3c1.3-0.3,4-2.3,4.8-0.5
		c0,0.1,0.2,0.2,0.3,0.2c0.4,0,0.9-0.1,1.4-0.2c0,0,0,0,0,0c2.3-0.2,4.6-0.1,6.9-0.3c2.3-0.2,4.6-0.9,6.9-1.1
		c2.3-0.2,4.6-0.4,6.9-0.6c2.3-0.1,4.7,0.3,7,0.2c2.3-0.1,4.6-0.5,6.9-0.6c2.3-0.1,4.6-0.5,6.9-0.5c2.3-0.1,4.6,0.5,7,0.5
		c2.3,0,7,0.1,7,0.1c2.5,0,5.1-2.2,5.1-4.8C437.4,225,434.8,222.4,432.3,222.4z"/>
	<path class="st0" d="M457.1,128.9c-2.3-1.1-4.6-0.1-5.8,2.2c-1.2,2.4-3.1,3.8-4.8,5.1c-1.8,1.4-3.9,1.9-6.4,2.2
		c-2.1,0.3-4.3,0.3-6.9,0.1c-2.1-0.1-4.5,0.2-7-0.1c-2.3-0.3-4.7-0.5-7.1-0.7c-2.4-0.2-4.8-1-7.1-0.8c-2.4,0.2-4.5,1.7-6.6,2.6
		c-0.5,0.2-0.9,0.4-1.3,0.8c-0.5,0.3-0.9,0.6-1.3,1c-0.5,0.5-0.8,1.1-1,1.8c-0.6,1.3-0.7,2.6,0,3.9c1.2,2.2,3.7,2.9,6,1.7
		c2.4-1.3,5.5-2.1,8.3-1.2c1.9,1.1,3.4,2.5,4.6,4.1c0.4,0.9,0.8,1.9,1.1,3.1c0.5,2.3,1.2,4.9,1,7.8c-0.2,2.3-0.7,4.5-1.2,6.8
		c-0.5,2.3-1.3,4.4-2.2,6.5c-0.9,2.2-1.9,4.3-3.2,6.1c-1.4,2-3.4,3.2-5.1,4.4c-0.7,0.5-1.4,1-2.1,1.4c-0.6,0.3-1.1,0.5-1.7,0.6
		c-1.6,0.5-3,0.4-4.5,0.2c-1.5-0.6-2.8-1.9-4-3.4c-1.3-1.7-2.6-3.6-3.2-6.4c-0.5-2.1-0.8-4.5-0.9-7.2c0.3-3.1,0.6-6.2,0.6-9.4
		c0.2-2.1-0.1-4.4,0.1-6.9c0.2-2.1,0.8-4.4,1-6.8c0.2-2.2,0.6-4.5,0.8-6.8c0.2-2.2,0-4.5,0.2-6.9c0.2-2.2,0.5-4.5,0.7-6.8
		c0.2-2.3-0.3-4.6-0.1-6.9c0.2-2.3,0.2-4.6,0.3-6.8c0.2-2.3,1.1-4.5,1.2-6.8c0.2-2.3,0.1-4.6,0.3-6.9c0.2-2.3,0.3-4.6,0.5-6.8
		c0.2-2.2,0.3-4.4,0.4-6.5c0.2-2.3,0.2-4.4,0.4-6.5c0.2-2.4,0-4.6,0.1-6.5c0.2-2.7,0.9-4.8,1-6.4c0.2-2.5-1.8-4.6-4.3-4.8
		c-2.5-0.2-4.3,1.6-4.5,4.1c-0.1,0.7-0.3,1.5-0.5,2.3c0,0.1,0,0.2,0,0.3c0,0.4,0.1,0.7,0.2,1c0.9,0.7,1.3,2.1,1.2,2.5
		c-0.1,0.3-0.7,0.4-1.5,0.3c-0.3,0.1-0.5,0.2-0.7,0.4c-0.1,1.8-0.2,3.8-0.3,5.9c-0.1,2-0.1,4.2-0.2,6.5c-0.1,2.1-0.7,4.2-0.8,6.5
		c-0.2,2.2,0.1,4.5,0,6.9c-0.2,2.2-0.3,4.5-0.5,6.9c-0.2,2.3-0.2,4.6-0.3,6.9c-0.2,2.3-1,4.5-1.1,6.8c-0.2,2.3,0.4,4.7,0.2,7
		c-0.2,2.3-0.9,4.6-1.1,6.9c-0.2,2.3-0.3,4.7-0.5,6.9c-0.2,2.4-0.6,4.7-0.8,6.9c-0.2,2.4-0.4,4.7-0.6,6.9c-0.2,2.5,0.2,4.9,0,6.9
		c-0.3,2.9-1.1,5.2-1.4,6.8c-0.4,2.4-0.4,4.6-0.8,6.6c-0.5,2.5-1.1,4.6-1.7,6.4c-0.9,2.4-2.3,4-3.6,5.4c-1.5,1.7-2.9,3.2-5.2,3.9
		c-1.6,0.4-3.5,0.4-4.8-0.9c-0.5-0.6-0.4-1.5-0.7-2.3c-0.3-2.1-0.7-5.1,0.1-9.3c0.5-2.5,1.6-4.8,2.2-7c0.9-3.1,1.2-5.8,1.9-7.1
		c1.1-2.3,2-4.5,1.9-6.8c-0.2-2.5-1.2-4.8-2.8-6.5c-0.9-1-2.9-2.9-6.2-3.1c-1.1-0.1-2.2,0.2-3.5,0.7c-1,0.2-2,0.5-3,0.7
		c-0.9,0.2-1.9,0.4-2.8,0.7c-0.5,0-1,0-1.6,0c-1.3-0.1-2.7,0.1-3.8-0.5c-1.8-1-2.5-3.3-3-5.3c0-0.3-0.2-0.7-0.2-1
		c0.1-2.5-1.5-4.3-4.1-4.3c-2.6-0.1-4.8,1.5-4.9,4.1c-0.1,2.2,0.4,4.5,0.3,6.7c0,0.3-0.1,0.6-0.1,0.8c0,0.1,0,0.2-0.1,0.3
		c-0.2,0.5-0.5,1.2-0.2,1.8c0.1,0.2,0.3,0.4,0.5,0.5c0.4,0.3,0.8-0.2,1.1-0.3c0.2,0.1,0.4,0.2,0.5,0.3c0.1,0.2,0.2,0.5,0.2,0.9
		c-0.4,0.7-1.5,1.1-2,1.8c-0.8,1.2-0.7,3-1,4.4c0,0.9-0.1,1.8-0.2,2.7c-0.3,2.5-0.9,4.7-1.2,6.6c-0.5,4-1,6.5-1,6.6
		c0,0-1,4.4-1.4,6.3c-0.5,2.3-0.8,4.4-1.4,6.2c-0.8,2.3-2,4.1-3.1,5.6c-1.4,1.9-2.9,3.4-4.7,3.9c-1.8,0.2-3.5-0.1-4.6-1.5
		c-0.4-0.4-0.7-0.9-0.9-1.4c-0.3-0.9-0.4-1.8-0.5-2.7c0.2-1.4,0.7-3,0.9-4.6c0.4-2.2,0.5-4.6,1.1-6.8c0.7-2.4,1.5-4.7,2.4-6.5
		c1.1-2.3,1.6-4.7,1.5-6.9c-0.2-2.5-0.9-5-2.5-6.7c-0.9-1-3.1-2.5-6.4-2.8c-1.8-0.1-4.2,0.1-6.8,1.2c-1.8,0.3-3.6,0.5-5.4,0.4
		c-0.4-0.1-0.8-0.2-1.2-0.4c-1.7-0.8-3.1-2.4-4-4.2c0-0.1-0.1-0.2-0.1-0.3c-0.1-0.4-0.2-0.8-0.3-1.2c0.2-2.4-1.1-5-3.5-5.4
		c-2.5-0.4-5.2,1.8-5.5,4.3c-0.3,1.9-0.3,3.8-0.5,5.6c-0.2,1.9-0.9,3.7-1.1,5.5c-0.3,2.4-0.2,4.8-0.5,7.2c-0.3,2.4-0.5,4.8-0.9,7.1
		c-0.4,2.3-0.9,4.6-1.5,7c-0.6,2.2-1.6,4.4-2.4,6.8c-0.8,2.2-1.7,4.2-2.6,6.1c-1,2.2-2.4,3.9-3.5,5.6c-1.4,2-2.3,4.1-3.7,5.4
		c-1.8,1.7-3.9,2.5-5.6,3.3c-2.3,1.1-4.3,2-6.2,2.1c-2.9,0.2-5-0.9-6.3-1.4c-1.8-0.6-3.7-1.7-4.8-3.8c-0.9-1.8-1.6-4.1-1.5-6.3
		c0.5-2.2,1.3-4.5,3-6.3c1.4-1.4,3.5-1.8,5.3-2.6c0.1,0,0.1,0,0.1-0.1c0.3,0,0.5-0.1,0.8-0.1c1.6-0.2,3.4,0,4.9-0.8
		c0.9-0.5,1.6-1.3,1.9-2.2c0.5-1,0.8-2.1,0.7-3.2c0-0.3-0.1-0.6-0.2-0.8c-0.2-0.5-0.6-1-1-1.4c-1.8-1.6-4.3-0.9-6.2-2.2
		c-0.5-0.4-1-0.8-1.3-1.4c-0.8-0.6-1-1.4-1.1-2.5c0.3-1.5,0.5-2.9,1.2-3.8c0.9-1.2,2-2.1,3.2-3c0.2-0.2,0.5-0.4,0.8-0.5
		c2.2-1,4.7-1.5,7.1-1.1c1.5,0.2,2.8,0.8,4.2,1.2c0.6,0.3,1.2,0.6,1.8,0.8c0.2,0.1,0.3,0.1,0.4,0c1.7,0.4,3.7-0.1,4.8-1.5
		c1.6-1.9,1.3-5.4-0.6-7.1c-1.7-1.4-4.1-1.7-6.2-2.3c-2.1-0.6-4.2-1.4-6.4-1.2c-2.1,0.1-4.2,0.3-6.1,1.1c-1.9,0.7-3.8,1.8-5.5,3.1
		c-1.9,1.4-3.8,3-5.2,5c-2.2,3-3.3,6.5-3.5,9.7c-0.3,4.4,2.7,7.1,3.1,7.6c0.3,0.3,0.1,0.8-0.3,1c-2.5,1.4-5.9,5.4-7.1,8.4
		c-1.4,2.3-2.7,4.4-4.1,5.9c-0.5,0.6-1.1,1.1-1.7,1.5c-0.5,0.5-1,0.9-1.5,1.4c-0.1,0.1-0.2,0.2-0.4,0.3c-0.4,0.3-0.9,0.5-1.3,0.8
		c-0.5,0.3-1.2,0.6-1.9,0.6c-0.1,0-0.2,0-0.4-0.1c-0.2,0-0.4-0.1-0.6-0.2c-0.5-0.6-0.8-1.5-0.9-2.4c0-0.1,0-0.3,0-0.4
		c0-0.1,0-0.2,0.1-0.2c0.1-0.3,0.1-0.5,0.1-0.8c0.1-2.7,0.3-5.1,0.2-7.2c-0.2-2.8-1-5-1.6-7c-0.8-2.7-1.9-4.7-3.1-6.3
		c-1.8-2.2-3.6-3.8-5.5-4.5c-2.3-0.8-4.7-1-7-0.8c-2.3,0.3-4.4,1.5-6.5,2.5c-2.2,1-4.5,1.7-6.3,3.1c-1,0.8-1.8,1.7-2.6,2.6
		c-0.8,0.8-1.5,1.7-2.3,2.5c-0.2,0.2-0.3,0.6-0.6,0.8c-4.1,2.7-2.9,0.4-4-0.7c-0.6-0.6-0.9-1-1.7-1.4c-2.3-1-4.5-0.6-5.6,0.9
		c-0.7,0.7-1.2,1.6-1.2,2.8c0,0.1-0.1,2.7-0.3,7.4c-0.1,2.1-0.7,4.5-0.8,7.3c-0.1,2.2,0.3,4.7,0.2,7.4c-0.1,2.3-0.7,4.7-0.8,7.3
		c-0.4,2.5-0.4,5.4-1.2,8c-0.8,2.7-2.5,5-3.7,7.2c-1.5,2.6-3,4.8-5.3,5.8c-1.2,0.3-2.2,0-3.4-0.8l0,0c-0.1,0-0.2-0.1-0.3-0.1
		c-0.2-0.2-0.4-0.3-0.6-0.5c-0.6-0.4-1.1-0.9-1.5-1.4c-0.1-0.2-0.1-0.4-0.2-0.6c-2.7-4.3-2.1-10.8-2.2-16c-0.2-2.1-0.5-4.3-0.5-6.6
		c0-2.6,0-5.2,0.2-7.8c0.6-5.4,1-9,1-9.3c0.1-2.5-1.8-4.4-4.3-4.6c-2.4-0.2-4.7,1.5-5,3.9c-0.1,1.3,0.1,3.6-0.1,6.4
		c0.1,0.7-0.4,1.4-0.4,2.1c-0.1,1.4,0.1,13.2-0.7,17.5c-0.1,0.9-0.2,1.9-0.3,2.8c-0.5,2.8-2,5.4-2.8,8.1c-0.6,2.1-1.5,4-2.6,5.9
		c-1.1,1.9-2.1,3.8-3.7,5.2c-1.6,1.4-6.2,4.7-10.5,4.6c-1,0-3.5-0.4-4.9-4.6c-0.5-1.6-0.5-3.9-0.5-7c0-2,0-4.3,0.2-7
		c0.1-1.6,0.7-3.9,0.9-6.6c0.2-2.1,0.3-4.4,0.5-6.7c0.2-2.3,0.6-4.6,0.8-6.6c0.4-3.8,0.1-6.6,0.1-6.7c0.3-2.5-1.4-4.3-4-4.6
		c-2.5-0.3-5.2,1.1-5.5,3.6c0,0.3,0.4,3.1,0,6.8c-0.2,2-1.1,4.3-1.4,6.6c-0.2,2.3-0.5,4.6-0.7,6.7c-0.3,2.7,0.1,5.2-0.1,6.8
		c-0.2,2.5-0.8,4.9-0.8,7.1c0,2.6,0.7,4.9,1.1,7c0.5,2.6,1.3,4.8,2.2,6.7c1.2,2.3,2.7,3.9,4.6,5.1c1.9,1.2,3.9,2.2,6.5,2.5
		c0.6,0.1,1.2-0.2,1.8-0.2c2.7,0,5.3-0.4,7.7-1.7c2.3-0.7,4.3-2,6.2-3.5c1.8-1.4,3.5-3,5.2-4.5c2.2-1.8,4.4-2.3,6.8-1.7
		c0.5,0.3,1,0.7,1.5,1c2.5,2.1,5.6,3.4,8.9,2.9c1.8-0.3,3.5-1.2,5-1.9c1.3-0.9,3.3-1.8,4.5-0.6c0.3,0.3,0.4,0.6,0.5,0.9
		c0,0.1,0.1,0.1,0.1,0.2c0,0.1,0,0.3,0,0.4c0,0.3,0,0.5,0,0.8c-0.1,2.6-0.1,5.2-0.1,7.9c0,0.4-0.4,2.6-0.6,5.9
		c-0.1,1.7,0.4,3.7,0.3,5.9c-0.2,0.8-0.6,1.6-1.1,2.3c-0.7,1-2.1,1.3-3.2,1.9c-0.2,0.1-0.3,0-0.4,0.1c-2,0.5-3.9,1-5.8,1.5
		c-2,0.5-3.9,0.9-5.9,1.3c-2,0.5-3.8,1.3-5.8,1.7c-2.5,0.5-3.7,3-3.1,5.5c0.5,2.1,2,3.4,4.1,3.4c0.1,0,3.1-0.3,4.5-0.7
		c0.9-0.3,1.7-0.7,2.6-0.9c0.7-0.2,1.5-0.3,2.2-0.4c2.2-0.6,4.5-1.2,6.8-1.6c0.5-0.1,1-0.2,1.5-0.3c0.3-0.1,0.5-0.1,0.8-0.2
		c0,0,0,0,0.1,0c0,0,0.1,0,0.2,0c0.3-0.1,0.6-0.1,1-0.2c0,0,0.1,0,0.1-0.1c0.1,0,0.3,0,0.4,0c1.9-0.4,3.7-0.8,5.6-1.3
		c1.6-0.5,5.1-1.3,5.3-1.4c2.2-0.6,4.4-1.4,6.6-2c2.4-0.7,4.7-1.8,7.2-2.5c2.4-0.7,4.9-1.1,7.3-1.8c2.4-0.7,4.8-1.7,7.2-2.4
		c2.4-0.7,4.8-1.7,7.2-2.4c2.4-0.7,5-0.8,7.4-1.6c2.4-0.7,4.9-1.4,7.3-2.1c2.2-0.7,4.4-1.4,6.6-2.1c2.2-0.7,4.4-1.5,6.6-2.1
		c2.2-0.7,4.3-1.8,6.5-2.5c2.2-0.7,4.4-1.4,6.7-2c2.2-0.7,4.5-1.1,6.8-1.7c2.2-0.7,4.5-1.3,6.7-1.9c2.2-0.6,4.6-0.7,6.9-1.3
		c2.2-0.6,4.4-1.5,6.6-2.1c2.2-0.6,4.5-1.2,6.7-1.8c1.8-0.6,3.7-0.9,5.5-1.4c1-0.2,2-0.6,2.9-1c2.4-0.4,4.7-0.8,7.1-1.3
		c1.6-0.3,5.2-1,5.3-1.1c2.5-0.5,4.3-3.5,3.7-6c-0.6-2.5-3.3-3.8-5.8-3.3c-0.5,0.1-0.5,0-1,0.1c-1.3,0.3-2.6,0.6-3.8,0.8
		c-1.6,0.2-3.2,0.6-3.9-1.1c-0.2-0.5-0.2-1.2-0.2-1.8c0-2.2,0-4.5,0.1-6.8c0.2-2.8,0.2-5.8,0.4-8.9c0.2-2.5-1.3-4.7-3.8-4.9
		c-2.5-0.2-4.9,1.8-5.1,4.3c-0.1,2.2-0.4,4.4-0.5,6.4c-0.1,2.2,0.5,4.4,0.4,6.5c-0.1,1.1-0.1,2.2-0.2,3.2c-0.1,1.3-0.4,2.6-0.8,3.9
		c-0.8,2.2-2.5,2.8-4.4,3.5c-1.9,0.4-3.8,0.6-5.6,1.1c-2.2,0.6-4.2,2.1-6.5,2.7c-2.2,0.6-4.6,0.7-6.8,1.4c-2.2,0.6-4.4,1.5-6.6,2.1
		c-2.2,0.7-4.4,1.4-6.6,2c-2.2,0.7-4.5,1.2-6.7,1.9c-2.2,0.7-4.5,1-6.7,1.7c-2.2,0.7-4.5,1.2-6.7,1.9c-2.2,0.7-4.3,1.9-6.5,2.6
		c-2.4,0.7-4.8,1.7-7.2,2.5c-2.4,0.7-4.9,1.5-7.3,2.3c-2.4,0.7-5.1,0.6-7.6,1.4c-2.4,0.7-4.8,1.8-7.2,2.5c-2.4,0.7-4.8,1.9-7.2,2.6
		c-2.4,0.7-5.1,0.7-7.5,1.4c-0.3,0-0.5,0.2-0.8,0.2c-0.2,0-0.5,0-0.7,0c-0.3-0.1-0.5-0.1-0.8-0.2c-0.3-0.1-0.6-0.3-0.8-0.5
		c-0.3-0.6-0.5-1.1-0.7-1.7c0,0,0,0,0-0.1c0.2-5.3-0.3-8.8-0.3-8.9c0-2.3,0.7-4.6,0.8-6.8c0.1-2.3,0.1-4.6,0.2-6.8
		c0.1-2.3-0.2-4.6-0.2-6.8c0.1-2.3,0.3-4.6,0.4-6.8c0.1-2.3-0.1-4.6-0.1-6.8c0.3-1.5,0.7-3.9,1.5-6.7c0.6-2,1.5-4.1,2.3-6.4
		c0.7-2.1,1.6-4.2,2.6-6.3c0.9-2.1,2-4.1,3.1-6.1c1.1-2,2.1-4.2,3.4-6c1.6-2,4.4-3.3,6.9-4.7c2.8-1.6,5.5-2.6,7.7-1.8
		c2,0.8,3.3,3.2,4,7.1c0.4,2.4,0.3,5.3,0.1,8.6c0,0.4,0,0.8-0.1,1.2c-0.1,0.7-0.3,1.3-0.5,2c-0.5,1.4-1.4,2.5-2.6,3.3
		c-0.5,0.2-1,0.3-1.6,0.4c-0.5,0.1-1,0.3-1.5,0.5c-1.5,0.4-3,0.9-4.5,1.5c-2.4,1-4.4,2.7-6.7,5c-1.8,1.8-3.8,3.5-5,5.8
		c-1.2,2.4-1.7,5-1.7,7.5c0,2.6,0.2,5.4,1.9,7.5c1.5,1.9,4.4,3.2,7.6,3.2c2,0,4.4-0.5,6.9-2.1c1.9-1.2,3.9-2.6,5.8-4.4
		c1.6-1.5,3.3-3.3,4.7-5.5c0.2-0.4,0.4-0.8,0.5-1.2c0.1-0.2,0.2-0.4,0.2-0.7c0.1-0.4,0.2-0.8,0.2-1.2c0-0.9-0.2-1.7-0.5-2.4
		c-0.3-0.5-0.7-0.9-1.1-1.3c-0.4-0.3-0.9-0.5-1.4-0.7c0,0,0,0-0.1,0c-0.3,0-0.7-0.1-0.9-0.1c-0.4,0-0.8,0.3-1.2,0.4
		c-1.9,0.6-3.2,2.3-4.3,3.9c-1.5,2.1-4.2,5.8-7.2,6.2c-0.4,0-0.7-0.1-1.1-0.3c-0.6-0.8-0.8-1.6-0.7-2.4c0-0.1,0-0.1,0.1-0.2
		c0-0.4,0.1-0.7,0.2-1.1c1.1-3,5-5.8,7.3-6.9c4.1-2.1,8.4-2.8,13-3.3c4.2-0.4,8.2-2.2,12.2-3.5c2.2-0.8,3.6-0.4,5.2,1
		c1.1,1.6,2.7,2.7,4.1,4c1.6,1.4,3.2,2.9,5.2,3.6c2.8,0.9,5.6,1.5,8.4,1.5c2.2,0,4.4-0.5,6.5-1c2.1-0.5,4.1-1.3,6.1-2.4
		c2.3-1.3,4.5-2.8,6.5-4.7c1.9-1.8,3.8-3.6,5.5-6c1.5-2.1,2.2-4.8,3.5-7.3c0.9-1.9,1.7-3.8,2.5-5.9c0.3-0.6,0.6-1.3,0.7-1.9
		c0,0,0-0.1,0-0.1c0-0.1,0-0.2,0-0.4c0,0,0,0,0-0.1c0,0,0,0,0-0.1c0,0,0,0,0,0l0,0c-0.2-1.4-0.7-0.8-0.3-2.7
		c0.3-1.7,0.3-1.4,1.4-2.1c0.4-0.3,0.8-0.5,1.1-0.9c0.4-0.5,0.6-0.9,0.6-1.4c0,0,0,0,0,0c0.3-1.3,0.5-2.7,0.7-3.9
		c0.4-2.1,0.7-4.2,1-6.2c0.1-0.3,0.1-0.7,0.2-1c0.3-0.7,0.6-1.4,0.7-2.1c0,0,0,0,0-0.1c0-1.2-0.2-2.3-0.2-3.5c0.2-0.7,0.3-1.3,0.6-2
		c0,0,0,0,0,0c1.5-0.5,1.2-0.3,2.3,0.4c0.8,0.5,1.7,0.9,2.6,1.2c0.7,0.2,1.8,0.4,2.7,0.3c0.2,0,0.3,0.1,0.5,0.1c0.4,0,0.8,0,1.1,0
		c2-0.1,3.9-0.5,5.4-1c1-0.1,2-0.3,2.9-0.5c0.6,0.2,1,0.8,0.9,2c0,0.4-0.5,0.9-0.6,1.3c-0.3,0.8-0.4,1.5-0.5,2.3
		c-0.2,0.9-0.5,1.9-0.8,2.9c-0.1,0.5-0.3,0.9-0.4,1.4c-0.7,2.3-2.2,4.7-2.6,7.3c-0.4,2.2-0.6,4.3-0.6,6.2c0,0.6,0,1.1,0.1,1.6
		c0,2.9,0.6,5.9,2,8.3c0.2,0.8,0.5,1.5,1,2.1c1.6,2,4.8,4,9.4,4c1.4,0,3.2-0.1,5-0.6c2.5-0.6,4.4-2.3,6.2-3.7
		c1.9-1.5,3.3-3.4,4.6-5.5c1.3-2.1,2.7-4,3.6-6.3c0.9-2.4,1.3-4.8,1.8-7c0.6-2.8,1-5.4,1.2-7.1c0.1-0.5,0.9-2.6,1.4-6
		c0.2-1.3-0.1-2.9-0.1-4.6c0.2-1.3,0.6-2.6,0.9-4c0.1-0.7-0.4-5.7,1.1-5.4c1,0.2,1.8,1.5,2.9,1.8c0.1,0,0.1,0,0.2,0c0,0,0,0,0,0
		c1.5,0.4,3,0.6,4.4,0.6c1.3-0.1,2.5-0.2,3.6-0.5c0.2,0,0.4,0,0.6-0.1c1.1-0.2,2.1-0.4,3.2-0.8c1.3-0.5,2.2,0,2.7,0.9
		c0.1,0.4,0.2,0.9,0.1,1.3c-0.2,1.3-0.9,2.7-1.4,3.8c-0.6,1.3-1.2,2.5-1.8,3.8c0,0.1,0,0.1,0,0.2c-0.7,2.1-1.6,4.4-2.1,6.9
		c-0.5,2.3-1.3,4.7-1.4,7.1c-0.2,2.5,0.4,4.9,0.8,7.2c0.5,2.5,0.9,5,2.3,6.8c1.6,2,4.6,3.6,9.1,3.6c1.4,0,3,0.4,4.7-0.1
		c2.2-0.6,4.3-1.4,6-2.4c1.9-1.1,3-3.1,4.4-4.7c1-0.8,2.4-1.3,3.6-1.6c1.8-0.3,2.7,1.2,4,2.2c0.6,0.5,1.3,0.9,2,1.2
		c2,2.2,6,3,8.7,3.2c2,0.1,4.4-0.5,6.5-1.4c0.4-0.1,0.7-0.3,1.1-0.4c2.1-0.8,4.4-1.4,6.3-2.8c1.8-1.3,2.8-3.5,4.3-5.4
		c1.4-1.7,2.6-3.5,3.8-5.6c1-1.9,2.2-3.9,3-6.1c0.7-2.1,1.6-4.2,2-6.6c0.4-2.2,0.9-4.4,1.1-6.8c0.1-2.1-0.3-4.2-0.5-6.1
		c-0.2-2.1-0.4-4.2-0.9-6c0-0.4-0.5-0.9-0.5-1.3c0.1-0.8,0.6-1.1,1.2-1.3c1.3,0.1,2.5,0.4,3.9,0.4c1.7-0.1,3.6-0.5,5.3-0.9
		c3.1-0.6,6.2-1.1,8.8-3c0.2-0.1,0.3-0.2,0.5-0.2c1.9-1.1,3.7-2.3,5.4-4.2c1.4-1.6,2.5-3.5,3.7-5.8
		C459.9,132.5,459.4,130.1,457.1,128.9z M422,142.3c-0.3,0.4-0.9,0.3-1.3,0.6c-0.5,0.3-0.8,1-1.1,1.6c-0.1,0.1-0.2,0.1-0.3,0.1
		c-0.9,0.6-2.1,0.2-1.6-1.1c0.1-0.1,0.1-0.3,0.2-0.4c0.4-0.5,0.8-0.9,1.2-1.2c0.4-0.2,0.9-0.4,1.3-0.6c0.8-0.4,1.4-0.1,1.6,0.8
		C422,142.2,422,142.3,422,142.3z M256.8,189.5C256.9,189.5,256.9,189.5,256.8,189.5c0.1-0.1,0.1-0.1,0.1-0.2
		c0.2-0.3,0.4-0.4,0.7-0.4c0.2,0,0.3,0.1,0.4,0.4c0.2,0.7-0.4,1.2-1.1,1.1c0,0,0,0,0,0C256.8,190.1,256.7,189.8,256.8,189.5z
		 M253.6,187.7c0.1-0.4,0.5-0.5,0.8-0.3c0.3,0.1,0.5,0.3,0.7,0.5c0,0,0,0.1,0.1,0.1c0.2,0.3,0.4,0.7,0.3,1.1c0,0.1-0.1,0.1-0.1,0.2
		c-0.3,0.2-0.6,0.2-1.1,0.2c-0.4,0-0.6-0.2-0.9-0.4c0,0,0-0.1,0-0.1C253.4,188.5,253.5,188.1,253.6,187.7z M182.3,242.7
		c-0.1,0.1-0.2,0.2-0.4,0.2c-0.7,0-1.2-0.4-1.7-0.8c-0.8-0.3-1.7-0.5-2.5-0.9c-0.4-0.2-0.7-0.4-0.9-0.8c-0.3-1.1,0.8-1.5,1.7-1.3
		c0.4,0.1,0.7,0.3,1.1,0.3c0.3,0,0.7,0,1,0c0.5,0,1.2,0.1,1.7,0.4C183.4,240.3,182.8,241.9,182.3,242.7z M332.1,201.2
		c-0.5,0.1-1-0.4-0.7-0.9c0.3-0.5,0.7-1,1.1-1.4c0.3-0.2,0.7-0.3,1-0.3c0.5,0,0.6,0.3,0.6,0.7C333.9,200.3,333,201,332.1,201.2z"/>
	<path class="st0" d="M183.2,197.1c-0.1,0-0.1-0.1,0-0.2c0.1-0.1,0.2-0.1,0.2,0S183.3,197.2,183.2,197.1z"/>
	<path class="st0" d="M395.8,286.5c-1.3-1.8-3.2-2.8-5.8-1.2c-1.2,0.7-2,1.7-2.9,2.7c-0.2,0.4-0.5,0.8-0.7,1.1c0,0,0,0,0,0
		c0,0,0,0,0,0c-1.1,2.9-3.1,5.4-5.7,7.4c-1.5,1.2-3.1,3.2-5.4,4.1c-2,0.8-4.5,1.5-6.8,1.2c-2-0.2-3.9-1.7-5.9-3.4
		c-1.2-1-2.3-2.4-3.2-4.7c-0.3-0.7-0.5-1.4-0.8-2.2c-0.4-3.4-0.9-6.8-0.8-10.3c0.1-3.3,0.6-6.6,1.4-9.8c0.4-1,0.9-1.9,1.3-2.8
		c1.1-2,2.3-4,3.9-5.6c2.1-2.2,4.4-3.4,6.5-4c0.5-0.1,1-0.2,1.5-0.3c0.3,0,0.5-0.1,0.8-0.1c0.1,0,0.2-0.1,0.4-0.2
		c0.3-0.1,0.6-0.2,1-0.3c0,0,0,0.1,0.1,0.1c0,0,0-0.1,0.1-0.1c0.2-0.1,0.4-0.1,0.5-0.2c0.6-0.5,1.2-1.1,1.7-1.8
		c0.7-1.1,1-2.1,0.9-3.2c-0.5-1.9-2.7-2.8-4.9-2.9c-1.7-0.1-3.5-0.4-5.1-0.1c-1.8,0.6-3.6,1.7-5.4,2.9c-1.6,1.1-2.8,2.8-4.2,4.3
		c-1.7,1.8-3.1,3.8-4.3,5.9c-1.3,2.1-2.5,4.2-3.3,6.5c-0.8,2.3-2.1,4.6-2.4,7c-0.4,2.4-0.4,5-0.4,7.4c0,0.3-0.1,0.6-0.1,0.9
		c-0.2,1.9-0.2,4.6-0.7,7.3c-0.4,2.4-0.7,5-1.6,7.2c-1.1,2.5-2.8,4.4-4.8,5.5c-1.1,0.6-3.7,1.6-5.7,0.3c-1.4-1-2.4-3-2.8-6
		c-0.3-2,0-4.3,0.2-6.9c0-0.5-0.2-0.9-0.1-1.4c0.3-2.2,1.3-11.7,1.5-13.9c0.1-0.6,0.2-1.1,0.2-1.6c0,0,0,0,0,0c0.1-1,0.2-2,0.3-3
		c0.1-1.2,0.1-2.3,0.1-3.4c0-0.2,0.1-0.4,0.1-0.7c0.2-2,0-4.3,0.3-6.9c0.2-2.5-1.6-5.1-4.1-5.3c-2.5-0.2-4.5,2-4.8,4.5
		c-0.3,3.3-0.6,6-0.8,8.5c-0.3,3.1-1,5.7-1.3,8.5c-0.2,1.8-0.3,3.8-0.5,5.9c-0.2,1.8,0,3.7-0.2,5.9c-0.3,2.4-0.8,4.7-1.2,6.8
		c-0.5,2.5-0.8,4.8-1.5,6.8c-0.9,2.5-2.1,4.4-3.5,6c-1.6,1.8-3.5,3.4-6,3.5c-1.1,0-1.9-0.6-2.7-1.3c-1.1-1.1-1.8-3.2-2.5-5.8
		c-0.5-1.8-0.7-3.9-1-6.2c-0.2-2-1-4-1.1-6.3c0-2,0.6-4.1,0.7-6.4c0.1-1.3-0.3-2.6-0.2-3.8c0.2-2.6,0.5-5.1,0.6-7.5
		c0.2-2.6,0.9-5.1,1.1-7.5c0.1-1,0-2-0.1-3c0.2-1.5,0.3-3,0.3-4.5c-0.1-1.9,0.1-4.8-1.1-6.3c-2.6-3.1-6.3-0.3-7.5,2.3
		c-0.1,0.3-0.3,0.6-0.4,0.9c-0.2,1.5-0.7,2.9-0.8,4.5c-0.1,1.9-0.4,3.7-0.5,5.6c0,0,0,0,0,0.1c-0.1,0.2-0.1,0.4-0.2,0.6
		c-0.1,0.2-0.2,0.4-0.3,0.6c-0.2,0.4-0.6,0.6-1,0.7c-0.5,0-1,0-1.5,0c-1.5-0.7-3.3-0.8-5-1c-2.2-0.3-4.4-0.2-6.6,0.2
		c-2.2,0.4-4.4,0.8-6.4,1.9c-1.9,1.1-3.6,2.6-5.2,4.3c-1.4,1.4-3.2,2.7-4.3,4.5c-1.1,1.7-1.2,3.9-2,5.9c-0.7,1.9-1.6,3.7-2.1,5.8
		c-0.5,2.1-0.7,4.1-0.9,6.2c-0.2,1.8-0.2,3.7-0.2,5.5c0,1.9,0.2,3.7,0.4,5.5c-0.1,0.4-0.2,0.8-0.1,1.2c0.2,1.5,0.1,4.9-0.4,8.2
		c-0.4,2.9-1.2,5.8-2.8,7.6c-1.1,1.3-2.6,2.1-4.5,2.1c-2.1,0-3-1.1-3.6-1.7c-1.4-1.5-2.1-3.9-2.5-6.7c-0.4-2.5-0.5-5.1-0.4-7.3
		c0.2-2.2,0.5-4.3,0.6-6.5c0.1-2.2-0.4-4.4-0.3-6.6c0-2.2,0.7-4.4,0.6-6.6c0-2.2-1-4.4-1-6.6c0.3-2.5-1-4.8-3.5-5.1
		c-2.5-0.3-4.4,1.5-4.8,4.1c-0.4,2.8-0.8,6.3-1,10.5c-0.1,2.2-0.2,4.5-0.4,6.9c-0.1,2.3-0.7,4.6-0.9,6.9c-0.2,2.3-0.2,4.7-0.5,6.9
		c-0.4,2.4-0.6,4.7-1.2,6.9c-0.6,2.4-1.4,4.6-2.4,6.6c-1.1,2.3-2.5,4.3-4.1,5.6c-1.5,1.2-4.3,2.8-8.9,1.6c-0.4-0.1-0.9-0.2-1.4-0.3
		c-1-0.4-1.9-1-2.8-1.7c-0.3-0.3-0.6-0.7-1-1c0,0-0.1-0.1-0.1-0.1c0,0,0,0,0,0c-0.1-0.1-0.1-0.2-0.2-0.2c-1.3-2-2.3-4.4-2.4-6.9
		c-0.1-2.6,0.5-5.2,0.6-7.4c0.1-1.9-0.2-3.8-0.1-5.7c0.1-1.9,0.5-3.7,0.5-5.6c0.2-2.1-0.2-4.2,0-5.9c0.3-3.2,0.4-5.6,0.4-5.9
		c0.2-2.5-1.2-5.1-3.8-5.3c-2.5-0.2-4.6,2.1-4.8,4.7c0,0.1,0,2.5-0.3,5.8c0,0.2-0.8,12.4-1,18.2c0,0,0,0,0,0.1
		c-0.2,2.1-1,4.1-1.1,6.1c-0.2,2.1,0.3,4.4-0.1,6.5c-0.4,2.1-1.1,5.4-2.3,8.3c-1.2,2.9-3,5.7-5.6,6.5c-0.8,0.4-1.9,0.3-2.9,0.2
		c-1.9-0.1-4.2-0.5-5.4-3.8c-0.6-1.6-1-3.8-1.2-6.9c-0.1-1.9,0.1-4.2,0.1-6.9c0-0.9,0.3-3.6,0.5-7.3c0.1-2.1-0.4-4.6-0.3-7.4
		c0.1-2.3,0.3-4.8,0.4-7.4c0.1-2.4,0-4.9,0.1-7.4c0.1-1.4,0.4-2.7,0.6-4.1c0-1.3,0.1-2.7-0.2-4c-0.4-1.8-1.6-2.8-3.1-3.1
		c-0.9,0-1.8,0.2-2.7,0.6c-1,0.7-1.9,1.7-2.5,3.1c-0.3,0.8-0.6,1.6-0.8,2.4c-0.1,1.8-0.1,3.7-0.2,5.5c-0.1,2.5-0.6,4.9-0.7,7.2
		c-0.1,2.5,0.3,5,0.2,7.2c-0.1,2.7,0,5.1,0,7.2c-0.1,3.7-0.7,6.3-0.7,7.2c0,1.8,0.3,4.3,0.4,6.9c0.1,2.2,0.3,4.6,0.8,6.9
		c0.5,2.3,1.7,4.3,2.9,6.2c1.2,2,2.4,3.9,4.5,5.1c1.8,1,3.9,1.6,6.4,1.8c1.9-0.3,3.8-0.5,5.7-1c0.3-0.1,0.5-0.2,0.8-0.3
		c1.7-0.7,3.5-1.2,4.9-2.5c0.1-0.1,0.2-0.2,0.3-0.3c0.9-0.7,1.7-1.5,2.4-2.4c1.2-1.3,2.3-2.7,3.5-3.9c1.1-1.1,2.4-1.8,4.1-1.3
		c1.2,0.4,2.1,1.3,3.3,1.6c1.3,0.3,2.6,0.5,3.9,0.8c0,0,0,0,0,0c0.8,0.1,1.7,0.1,2.5,0.1c2.4,0,4.7-0.3,6.8-1c1.7-0.6,3-1.9,4.4-3.1
		c2.5-1.8,4.8-3.9,6.9-6.1c0.8-0.9,1.8-1.8,2.9-2.2c0.1,0,0.3-0.1,0.4-0.1c1.2,0,2.4,0.3,3.8,1c1.3,0.7,2.6,1.3,4.1,1.6
		c1.5,0.3,2.9,0.3,4.2-0.1c1.7-0.2,3.4-0.6,4.9-1.2c1.9-0.8,3.5-2.3,4.9-3.9c0.6-0.7,1.5-1.2,2-2c0.3-0.3,0.5-0.6,0.7-0.9
		c0.2-0.2,0.5-0.3,0.7-0.4c1.1-0.6,2.1-0.7,3.1-0.5c0.1,0.1,0.2,0.1,0.3,0.2c0.2,0.1,0.5,0.1,0.8,0.1c0.2,0,0.3,0.1,0.5,0.2
		c0.4,0.1,0.7,0.2,1.1,0.3c1.7,0.7,3.5,1.4,5.3,1.4c1.9,0,3.8-0.7,5.7-1.4c1.8-0.6,3.3-1.9,4.9-3c1.5-1.1,2.9-2.4,4.2-3.8
		c1.3-1.1,2.5-2.5,4.2-3.3c2-1.1,4.1-0.1,6.2,1.1c0.5,0.4,1.1,0.7,1.6,1c1.1,0.7,2.1,1.3,3.1,1.7c2.6,0.9,5.5,0.4,8-0.9
		c0.6-0.2,1.2-0.4,1.7-0.7c1.3-0.6,2.3-1.4,3.3-2.3c2-1.2,3.8-2.7,5.8-3.5c1.2-0.3,2.1-0.2,3.2,0.1c1.9,1.1,4.3,1.6,6.6,1.6
		c2.6,0,5.3-0.8,8-2.2c2.7-1.4,5.2-3.3,6.8-5.8c1.3-1.1,2.3-2.5,3.9-2.1c0.3,0.1,0.6,0.1,0.9,0.2c0.1,0,0.2,0.1,0.2,0.1
		c1.9,1.6,4.1,2.7,6.2,3.5c2.3,0.9,4.5,1.8,7,1.8c2,0,4.1,0,6.2-0.6c1.9-0.5,3.4-2.1,5.3-3.1c1.7-0.9,3.5-1.8,5.2-3.1
		c2.5-1.9,4.8-3.9,6.3-6.3c1.5-2.6,2.7-5.5,3.4-8.4C396.3,288.3,396.2,287.4,395.8,286.5z M267.8,322.5c-0.3,0.3-0.9,0.4-1.4,0.3
		c-0.4,0.2-1-0.2-0.8-0.7c0.3-0.9,0.9-1.6,1.9-1.6c0.2,0,0.5,0.2,0.6,0.4C268.2,321.5,268.2,322.1,267.8,322.5z M270.4,324
		c-0.1-0.1-0.2-0.1-0.3-0.1c-0.2-0.1-0.2-0.3-0.3-0.4c-0.1-0.3,0.2-0.7,0.5-0.7c0.5,0,0.8,0.4,1,0.8
		C271.6,324.1,270.7,324.3,270.4,324z M294,295.4c0,0.2-0.1,0.3-0.1,0.5c0.3,6.2-1.8,13.7-6.5,17.8c-1.1,1.5-2.4,2.6-3.6,3.5
		c-2.5,1.8-5.8,2.5-8,1.5c-3.3-1.5-5.1-6-5.8-8.6c-0.5-1.9-1.1-3.9-1.3-5.9c-0.2-2,0.4-4.1,0.5-6.1c0.1-2,0.6-3.9,1.1-5.9
		c0.5-2.3,0.6-4.6,1.5-6.5c1-2.1,2.7-3.7,4.2-5.2c2.6-2.6,5.9-4.4,9-4.4c0.5,0,1,0,1.5,0.1c2.3,0.3,4.3,2,5.8,3.8
		c1.1,1.5,1.9,3.2,2.1,5.5c0.1,1-0.4,2-0.4,3C293.8,290.8,294.4,293.2,294,295.4z M353.4,299.1c-0.6-0.2-1.1-0.8-1.6-1.2
		c-0.4-0.4-0.8-0.9-0.6-1.5c0.4-1.2,1.5-0.4,2.3,0.3c0.2,0,0.3,0,0.5,0.1c0.1-0.1,0.2-0.1,0.3-0.1c0.2-0.1,0.4-0.2,0.6-0.2
		c0.5,0,0.8,0.4,0.8,0.9C355.7,298.3,354.4,299.5,353.4,299.1z"/>
	<path class="st0" d="M404.6,272.9c1.1-1.1,2-2.3,2.9-3.4c1.6-2,2.8-4.2,4-5.9c0.4-0.6,0.5-1.5,0.9-2.1c1.5-2.1,1.2-4.4-0.9-5.9
		c-2.1-1.5-5.2-1.6-6.6,0.5c-0.4,0.6-0.9,1.2-1.3,1.9c-1.2,1.7-2.3,3.7-3.8,5.7c-0.1,0.2-0.3,0.3-0.4,0.5c-0.6,0.5-1.1,1-1.7,1.4
		c-1.4,1.1-2.7,0.2-3.6-0.9c-0.9-1.7-1.9-2.9-2.9-4c-1.8-1.9-3.6-2.8-5.1-3.2c-1.4-0.4-3.2-0.2-5.5,0.5c-1.5,0.5-3,1.3-4.8,2.8
		c-2.3,1.9-4,4-4.5,6.7c-0.5,2.6,0,5.4,1.4,8.1c1.7,3.2,4.3,5.6,7.3,6.7c1.3,0.3,2.5,0.4,3.9,0.4c1.6,0.1,3-0.2,4.5-0.5
		c1.4-0.5,2.8-1.1,4.1-1.6c1.6-1,3.2-2,4.8-2.8C400,276.7,402.3,274.8,404.6,272.9z M387.5,272.8c-2.7,2.2-5.3,0.5-5.5,0.4
		c-0.7-0.4-1.2-1-1.6-1.6c-0.1-0.3-0.2-0.6-0.3-0.9c-0.6-1.5-0.6-3.1,0.9-4.2c1.4-1.1,3-0.8,4.3,0.1c1.2,1.1,2.1,2.3,2.4,4
		C388,271.5,387.8,272.2,387.5,272.8z"/>
	<path class="st0" d="M138.3,131.6c-0.5-2.4-2.2-4.5-3.5-6.9c-1.1-2.1-2.4-4-3.9-5.9c-1.4-1.9-2.7-3.9-4.4-5.6
		c-1.7-1.6-3.7-2.9-5.7-4.3c-2-1.3-3.9-2.6-6.2-3.5c-2.2-0.9-4.4-1.8-6.8-2.3c-2.3-0.4-4.7-0.4-7.2-0.4c-1.4,0-2.8-0.1-4.3-0.1
		c-0.1,0-0.2,0-0.3,0.1c-1.2,0.3-3.2,0.6-4.2,1.3c-0.6,0.4-0.7,1.1-1.2,1.5c-0.5,0.5-1.6,0.9-2.3,0.6c-0.3-0.1-0.3-0.6-0.5-0.7
		c-0.6-0.6-1.3-0.7-2-0.5c0,0,0,0,0,0c-1,0.6-2.1,1-3.1,1.5c-0.9,0.5-1.8,1.1-2.7,1.5c-2.3,1-4.4,2.1-6.4,3.4
		c-2.1,1.4-4.5,2.2-6.3,3.9c-1.8,1.7-3.6,3.5-5,5.5c-1.5,2-2.6,4.2-3.7,6.4c-1.1,2.2-1.9,4.5-2.6,6.9c-0.7,2.3-0.7,4.9-1.1,7.4
		c-0.3,2.4-1.3,4.8-1.4,7.4c0,2.4,0.2,5,0.5,7.5c0.2,2.4,0.7,4.9,1.1,7.4c0.5,2.4,1.6,4.7,2.3,7.1c0.7,2.4,0.9,4.9,1.7,7.3
		c0.8,2.3,2.1,4.5,3.1,6.8c1,2.3,1.4,4.8,2.5,7.1c1.1,2.2,2.7,4.2,4,6.4c1.2,2.1,2.3,4.4,3.7,6.5c1.3,2,2.2,4.3,3.4,6.3
		c1.3,2.1,3.2,3.6,4.4,5.6c1.2,2.1,2.5,4.1,3.6,6.1c1.2,2.1,2.1,4.3,3.2,6.4c1.2,2.1,2,4.4,3,6.5c1.1,2.2,2.4,4.2,3.3,6.3
		c1,2.2,1.6,4.5,2.4,6.7c0.8,2.3,2,4.4,2.6,6.7c0.6,2.4,0.7,4.8,1,7.1c0.3,2.4,0.4,4.7,0.3,7.1c0,1.5,0.1,2.9,0.1,4.4
		c-0.1,0.6-0.1,1.2-0.1,1.8c0,0.3-0.1,0.7-0.1,1c-0.2,0.9-0.5,1.8-1,2.6c-0.1,0.2-0.1,0.4-0.2,0.6c-0.5,1.5-1.5,2.7-1.9,4.3
		c0,0.2-0.3,0.2-0.4,0.1c-0.4-0.4-0.8-0.4-1.2-0.3c-0.6,1.1-0.6,2.5-0.7,3.8c-0.3,0.7-0.6,1.3-0.8,2c-1.2,1.8-2.6,3.5-4.2,5.3
		c-1.6,1.9-3,3.8-4.8,5.3c-1.9,1.6-3.5,3.4-5.5,4.7c-2.1,1.3-4.6,1.7-6.8,2.6c-2.2,0.9-4.4,1.9-6.7,2.5c-2.3,0.6-4.7,1.5-7.1,1.7
		c-2.4,0.2-4.9-0.1-7.2-0.2c-2.4-0.1-4.8-0.3-7.2-0.7c-2.4-0.5-4.7-1.2-7-2c-2.3-0.8-4.6-1.6-6.7-2.7c-2.2-1.1-3.7-3.1-5.6-4.6
		c-1.7-1.3-3.6-2.6-5-4.5c-1.4-1.7-2.4-3.7-3.4-5.8c-1-2-2.6-3.8-3.3-6c-0.7-2.1-0.5-4.5-1-6.8c-0.4-2.2-1-4.4-1.2-6.7
		c-0.2-2.3,0-4.5,0.1-6.8c0.1-2.3,0-4.5,0.4-6.8c0-0.1,0-0.1,0-0.2c0-0.1,0-0.3,0-0.4c0.2-0.5,0.4-0.9,0.5-1.4
		c0.4-1.4-0.1-3.6,0.7-4.7c1.1-1.5,2-2.6,2.5-4.1c0.4-0.9,0.9-1.7,1.4-2.6c1.3-2.1,2.4-4.5,4.3-6.3c1.8-1.7,4-3.1,6.4-4.3
		c1.9-0.9,4-1.2,6.3-1.7c0.8-0.3,1.5-0.7,2.2-1.1c0.3-0.4,0.5-0.8,0.6-1.2c0.1-0.3,0.3-0.4,0.5-0.4c0.5,0,0.8,0.3,1,0.7
		c0.1,0.1,0.1,0.3,0.2,0.5c0.2,0.2,0.3,0.3,0.5,0.4c0.2,0.1,0.3,0.2,0.5,0.3c1-0.1,2-0.2,3-0.2c2.9,0,5.5,0.1,7.8,0.6
		c2.8,0.6,5,2,7.1,3.1c2.5,1.4,4.6,2.8,6.1,4.7c1.8,2.2,3.2,4.5,4,6.7c1.2,3.1,1.3,6,1.5,7.6c0.2,2.2,0.5,4.3,0.3,6.4
		c-0.3,2.2-0.8,4.3-1.5,6.2c-0.8,2.1-1.9,4.1-3.2,5.5c-1.5,1.7-3.5,2.7-5.5,3.1c-2.6,0.6-5,0.7-6.9,0c-2.3-0.8-4.6-2.1-6-3.8
		c-1.6-1.9-2.1-4.5-2.5-6.6c-0.6-2.7-3.4-4.3-6.1-3.7c-2.7,0.6-4,3.2-3.4,5.8c0.6,2.5,0.8,5.3,2.1,7.5c1.3,2.2,3.6,3.8,5.5,5.5
		c1.9,1.7,4,3.2,6.5,4.2c2.3,0.9,4.9,1.1,7.6,1.1c1.7,0,3.6,0.5,5.5,0.1c2.2-0.5,4.1-1.9,6-3.1c1.8-1.2,3.3-2.7,4.8-4.5
		c1.4-1.6,2.8-3.3,3.9-5.4c1-1.9,2.1-3.9,2.7-6.1c0.5-2.1,0.1-4.4,0.3-6.7c0.1-2.2,0.3-4.3,0-6.6c-0.3-2.7-0.8-5.3-1.6-7.9
		c-0.8-2.6-2.2-4.9-3.5-7.2c-1.4-2.3-3-4.4-4.9-6.3c-1.7-1.7-3.5-3.2-5.6-4.5c-1.9-1.2-3.8-2.5-5.9-3.4c-0.3,0-0.7,0.1-1,0.3
		c0,0.2,0,0.4,0,0.6c-0.1,0.5-0.3,0.8-0.7,1c-0.2,0-0.4,0-0.6-0.1c0,0,0,0,0,0c0,0,0,0,0,0c-0.2-0.1-0.4-0.3-0.7-0.6
		c-0.4-0.5-0.8-1-1.4-1.5c-1-0.8-2.3-1.4-3.7-1.4c-0.1,0-0.1,0-0.2,0c-0.2-0.1-0.3-0.2-0.5-0.2c-1.9-0.4-3.9-1-6-1
		c-2.5,0-4.9,0.2-7.3,0.6c-2.5,0.3-4.8,0.9-7.1,1.6c-2.3,0.8-4.8,1.4-6.9,2.5c-2.1,1.2-3.8,3.1-5.7,4.6c-1.8,1.6-3.9,3-5.4,4.9
		c-1.5,1.9-2.6,4.1-3.7,6.3c-1.1,2.1-2.3,4.2-3.2,6.6c-0.8,2.3-0.9,4.9-1.4,7.3c-0.5,2.4-1.5,4.8-1.7,7.3c-0.2,2.5-0.1,5,0,7.5
		c0.1,2.5,0.8,4.9,1.2,7.4c0.4,2.5,0.9,4.9,1.5,7.3c0.7,2.4,1.5,4.8,2.5,7c1,2.3,2.3,4.5,3.5,6.5c1.3,2.2,2.9,4.1,4.4,5.9
		c1.7,1.9,2.9,4.2,4.9,5.7c2,1.5,4.2,2.9,6.4,4.1c2.2,1.2,4.6,2.1,7,3c2.3,0.9,4.9,1.2,7.4,1.9c2.4,0.6,4.8,2,7.3,2.3
		c2.5,0.3,5.1,0,7.6,0c1.5,0,3,0,4.5-0.1c2.5-0.2,5-0.5,7.4-1c2.5-0.5,5-0.8,7.4-1.6c2.4-0.8,4.4-2.4,6.7-3.5
		c2.2-1.1,4.7-1.9,6.8-3.3c2.1-1.4,3.7-3.3,5.6-5c1.8-1.7,3.2-3.8,4.8-5.7c1.6-1.9,3.5-3.3,4.7-5.2c1.3-2,1.9-4.4,2.9-6.4
		c1.1-2.2,2.7-4,3.4-6.2c0.7-2.3,0.7-4.7,1.1-7c0.4-2.3,0.8-4.6,0.8-6.9c0.1-2.3,0.1-4.7-0.2-7c-0.2-2.3-0.5-4.7-1-7
		c-0.5-2.3-1.5-4.4-2.2-6.7c-0.7-2.2-0.9-4.6-1.7-6.8c-0.8-2.2-2.6-3.9-3.6-6.1c-1-2.1-1.4-4.5-2.5-6.6c-1.1-2.1-2.4-4-3.5-6.1
		c-1.1-2-2.6-3.9-3.8-5.9c-1.2-2-1.8-4.3-3-6.3c-1.2-2-2.6-3.9-3.8-5.9c-1.2-2-2.6-3.9-3.8-5.9c-1.3-2.1-2.6-4.2-3.7-6.4
		c-1.2-2.2-2.6-4.3-3.6-6.4c-1.1-2.3-1.9-4.6-2.9-6.8c-1-2.3-1.8-4.6-2.6-6.9c-0.8-2.4-1.9-4.7-2.4-7c-0.6-2.5-0.8-5-1.1-7.3
		c-0.4-2.5-0.7-5-0.8-7.4c-0.1-2.5,0.2-5,0.4-7.4c0.3-2.5,1.2-4.8,1.9-7.1c0.7-2.3,1.2-4.6,2.3-6.6c1.2-2.1,2.7-3.8,4.3-5.5
		c1.3-1.4,2.4-3,3.9-4.3c0.2-0.3,0.5-0.6,0.7-0.8c0.1-0.3,0.2-0.6,0.3-0.9c0-0.2,0-0.3,0-0.5c0-0.1-0.1-0.2-0.1-0.3
		c-0.1-0.5-0.1-0.7,0.3-1c0.7-0.4,1.9,0.4,2.5,0.5c0.6,0.2,1.1,0.1,1.7,0c0.7-0.3,1.4-0.6,2.1-0.9c2.3-1,4.4-2,6.5-2.6
		c2.4-0.7,4.7-1.3,6.9-1.5c2.5-0.2,4.9,0,7,0.3c2.5,0.4,4.7,1.1,6.7,2c2.3,1,4.3,2.1,6.1,3.5c2,1.6,3.6,3.3,5,5
		c1.9,2.3,2.9,4.5,3.7,6c1.3,2.6,1.9,5,2.1,7.4c0.2,2.7,0,5.2-0.8,7.7c-0.8,2.5-1.7,5.1-3.1,7.2c-1.6,2.3-3.5,4.3-5.2,6
		c-3,3-6,4.5-6.3,4.7c-2.3,1.6-2.7,5.1-1.1,7.3c1.6,2.3,4.7,2.8,7,1.2c1.8-1.3,4-2.7,6.1-4.7c1.8-1.7,3.3-3.8,5-5.9
		c1.6-2,2.8-4.2,4-6.5c1.2-2.2,2.8-4.4,3.5-6.8c0.8-2.4,1-5,1.1-7.6C138.5,136.9,138.9,134.2,138.3,131.6z M84.1,308.4
		c-0.2,0.1-0.3,0.2-0.5,0.3c0.1,0.3,0,0.6-0.2,0.7c-1.7,0.9-3.6,1.6-5.5,1.9c-0.2,0-0.4-0.1-0.6-0.2c-0.5,0.1-0.7-0.7-0.2-0.8
		c0.1,0,0.2-0.1,0.2-0.1c1.9-1.7,4-4.2,6.8-2.8C84.5,307.6,84.5,308.2,84.1,308.4z"/>
	<path class="st0" d="M39.1,274.6c0,0.1-0.1,0.1-0.2,0c-0.1-0.1,0-0.2,0.1-0.2C39.1,274.4,39.1,274.5,39.1,274.6z"/>
	<path class="st0" d="M375.5,369.1c-0.6-2.5-3.2-4.4-5.7-3.8c-1.9,0.5-3.9,0.3-5.8-0.7c-1.8-1-3.7-2.2-4.6-4.1c-1-2.3-0.7-5,0.3-7.7
		c0.8-2.1,2.1-4.4,4.1-6.6c1.6-1.7,3.7-3.3,6-4.9c1.5-1.1,1.8-2.7,1.4-4.5c-0.4-1.8-1.4-3-3.2-3.3c-2.7-0.5-5.3-1.2-7.9-1.2
		c-2.7,0-5.3,0.6-7.9,1.1c-2.6,0.5-5,1.7-7.4,2.7c-2.4,1-4.7,2.3-6.9,3.8c-2.1,1.4-4.1,2.9-5.9,4.6c-1.8,1.7-3.8,3.3-5.3,5.3
		c-1.6,2-2.8,4.2-4.1,6.3c-1.3,2.2-2.8,4.2-3.7,6.6c-0.9,2.2-1.5,4.5-2.2,7c-0.6,2.3-1.5,4.6-2,7.1c-0.2,0.9-0.4,1.8-0.5,2.7
		c-0.3,0.9-0.8,2.3-0.6,2.9c0.6,1.5,2.4,0.1,0.8,2.8c-0.7,0.4-1.5,1-1.9,1.7c-0.1,0.1-0.1,0.1-0.2,0.2c-0.4,1.5-0.8,2.9-1.3,4.2
		c-1,2.6-2,4.8-3.4,6.6c-1.6,2.1-3.5,3.4-5.9,4.3c-0.8,0.2-1.6,0.2-2.4,0.2c-2.2-0.1-3.6-1.1-4.6-2.7c-0.6-1.6-1.2-3.8-0.5-6
		c0.5-1.7,2.2-3.1,3.7-4.8c1.2-1.3,2.1-3.3,4-4.5c1.5-1,2.3-2.3,2.1-4c-0.2-1.7-1.1-3.6-2.8-4.1c-2.4-0.8-4.7-1.2-6.8-1.5
		c-2.5-0.3-4.8,0.2-6.9,0.6c-2.4,0.4-4.4,1.3-6.4,2.4c-2,1.2-4,2.3-5.6,4.1c-1.5,1.7-2.6,3.8-3.8,5.8c-1.2,2-2.9,3.8-3.8,5.8
		c-1,2.2-1.3,4.6-2.1,6.6c-0.9,2.2-1.9,4.3-2.7,6.2c-1,2.2-1.8,4.4-2.9,6.1c-1.3,2.2-3.3,3.5-4.9,4.7c-1.8,1.4-3.7,2.4-6.1,2.5
		c-3.5,0.2-6.2-0.8-8.1-2.4c-2.2-2-3-5.1-3.3-7.7c-0.3-2.4-0.4-4.9,0.5-7.4c0.8-2.2,2.1-4.4,4-6.3c1.6-1.6,3.7-3.2,6.2-4.3
		c2.1-1,4.5-1.9,7.2-2.4c1.4-0.3,2.7-0.8,3.4-2.1s0.8-3,0.1-4.3c-1.2-2.1-2.9-3.8-4.5-5.4c-1.7-1.7-3.7-2.7-5.8-3.8
		c-2-1-4-2.3-6.4-2.7c-2.1-0.3-4.2,0-6.4,0.2c-2.1,0.1-4.2,0.1-6.3,0.7c-2,0.6-3.9,1.6-5.9,2.5c-2.4,1.2-4.4,2.7-6.4,4.3
		c-2,1.7-4.1,3.2-5.8,5.2c-1.7,2-3.2,4.2-4.6,6.3c-1.6,2.3-3.4,4.2-4.7,6.3c-1.4,2.3-2.5,4.4-3.5,5.6c-1.6,1.9-2.9,3.8-4.6,4.9
		c-2.1,1.4-4.4,2.2-6.4,2c-1.7-0.1-3.4-1.1-4-2.2c-1.2-2.1-0.7-5.1,2.2-7.4c0.8-0.6,1.6-1.1,2.5-1.6c0.8-0.5,1.9-1,2-2
		c0.2-1.6-1.5-3.3-3.1-4.3c-0.1-0.2-0.3-0.3-0.4-0.4c-2-1.6-4.1-2.8-6.2-3.4c-2.3-0.7-4.7-0.7-7-0.4c-2.2,0.3-4.2,1.3-6.3,2.6
		c-1.8,1.1-3.9,2.2-5.6,4c-0.7,0.7-1.3,1.5-1.9,2.4c-0.2,0.2-0.3,0.3-0.4,0.5c-0.1,0.2,0,0.4,0.2,0.4c0.2,0,0.4,0,0.6-0.1
		c0,0,0,0,0,0c0.3,0.2,0.6,0.5,0.9,0.7c0,0,0,0,0,0c0.3,0.8,0,1.1-0.9,1c-0.3,0-0.6,0-0.8,0.1c-0.6,0.1-1,0.4-1.4,0.7
		c-0.6,0.5-1.2,1.1-1.7,1.7c-0.4,0.3-0.7,0.6-1.1,0.9c-0.7,0.6-1.3,1.2-1.9,1.8c-1.8,1.9-3.1,3.6-4.9,4.1c-1.8,0.5-3.9,0.4-6.5,0.1
		c-2.5-0.3-4.8,1.3-5.1,3.9s1.7,4.6,4.2,4.9c2.7,0.3,5-0.1,7.1-0.4c2-0.3,3.8-0.4,5.5-1c0.1-0.1,0.2-0.2,0.4-0.3
		c0.2-0.3,0.4-0.7,0.5-1c0-0.3,0.1-0.6,0.4-0.8c0.3-0.2,0.7-0.3,1,0c0.1,0.1,0.1,0.1,0.2,0.2c0.1,0,0.1,0,0.2,0.1
		c0.4-0.1,0.7-0.2,1-0.4c1.1-0.9,2.1-2,3.2-3.2c1.5-1.6,3.2-3.3,4.7-5.4c2.3-3.2,4.4-5.5,6.5-6.9c0.5-0.4,1-0.8,1.5-1.2
		c0.3-0.1,0.7-0.1,1-0.1c0.7-0.1,1.7-0.1,2.3,0.4c0.7,1.5-0.8,2.9-1.3,4.2c-0.3,0.7-0.5,1.5-0.7,2.2c-0.1,0.9-0.1,1.8,0.1,2.7
		c0.2,1.8,0.7,3.6,1.6,5.2c1.1,2,2.4,3.9,4.4,5.1c1.9,1.1,4.2,1.3,6.5,1.5c1.8,0.2,4.5,0.8,7.5-0.2c2-0.7,4-2.4,6.2-4.2
		c1.7-1.3,3.7-2.8,5.5-5c1.4-1.7,2.7-4,4.3-6.6c1-1.7,2-3.8,3.2-5.7c1.2-1.8,2.8-3.3,4.2-5c1.4-1.7,2.8-3.3,4.4-4.7
		c1.7-1.4,3.2-3.2,5.1-4.1c2-1,4-1.7,5.7-2.1c2.2-0.5,4.3-0.2,6.1,0c1.6,0.2,3,0.6,4.4,1.1c1.5,1.5,0.5,2.8-0.6,3.8
		c-1.3,0.8-2.5,1.6-3.7,2.5c-1.9,1.4-4.1,2.4-5.5,4.1c-1.5,1.8-2.7,3.9-3.6,5.9c-1,2.1-1,4.5-1.4,6.7c-0.4,2.3-1.1,4.6-0.8,6.8
		c0.3,2.6,1.1,5.1,2.1,7.2c1.1,2.3,3.1,4,4.9,5.6c1.8,1.7,3.9,2.9,6.2,3.8c2.2,0.8,4.6,1.4,7.2,1.4c0.4,0,0.8-0.2,1.3-0.2
		c2.7-0.1,4.9-0.9,7-1.8c2.3-1,4.2-2.4,6-4.1c1.7-1.7,3.2-3.6,4.6-5.7c0.6-0.9,1.2-1.8,1.8-2.7c0.5-0.5,1-1.1,1.2-1.7
		c0.4-1.2-0.2-0.6-0.5-1.5c-0.5-1.3,1.5-1.5,2.1-2.4c0,0,0,0,0,0c0.1-0.1,0.2-0.2,0.3-0.3c0,0,0.1-0.1,0.1-0.1
		c0.7-1.5,1.3-3,1.9-4.4c1-2.5,1.8-4.9,2.7-7c1.2-2.5,2.2-4.9,3.5-6.7c1.5-2.1,3.3-3.5,5.2-4.5c0.9-0.1,2,0,1.9,1.4c0,0,0,0.1,0,0.1
		c-1.4,2.5-2.2,5.1-2.5,7.5c-0.4,3.1,0.4,6.1,1.2,8.6c1.1,3,2.7,5.5,5,7.2c2.4,1.8,5.4,2.9,8.4,2.6c2.7-0.3,5.1-1.1,7.2-2.1
		c2.4-1.1,4.3-2.7,6-4.4c1.8-1.7,3.6-3.5,4.9-5.7c1.2-2.1,2.1-4.5,2.9-6.9c0.8-2.3,1.4-4.8,2-7.2c0.6-2.5,1.2-4.9,1.8-7.3
		c0.5-2.2,0.9-4.4,1.5-6.5c0.6-2.3,1.2-4.4,1.9-6.3c0.8-2.1,2-4,3.2-6c0.1-0.2,0.2-0.3,0.3-0.5c0.1-0.3,0.2-0.6,0.3-0.9
		c-0.1-0.6-0.1-1.3-0.3-1.9c-0.3-0.3-0.6-0.7-0.6-1.1c-0.1-0.8,0.7-1.3,1.3-0.8c0.3,0.2,0.4,0.5,0.6,0.8c0.1,0,0.2,0.1,0.3,0.1
		c0.1,0,0.2,0,0.3,0c0.2-0.1,0.4-0.2,0.6-0.3c0.3-0.4,0.5-0.7,0.8-1.1c1.5-1.7,2.9-3.5,4.7-5c1.7-1.5,3.7-2.6,5.7-3.8
		c1.4-0.8,2.9-1.6,4.5-2.2c0.1,0,0.1,0,0.2,0c1.1-0.2,1.9,0,2.4,0.5c0.2,0.5,0.3,1.1,0.4,1.6c-0.3,1-0.6,1.9-0.9,2.9
		c-0.3,0.9-0.6,1.8-0.8,2.6c-0.7,2.4-0.7,4.7-0.6,6.6c0.2,3,0.5,5.4,1.1,6.6c1.2,2.6,3.3,4.6,5.4,6.3c2.1,1.8,4.5,3.6,7.1,4.2
		c2.7,0.7,5.6,0.7,8.4,0C374.6,374.3,376.1,371.6,375.5,369.1z M360,338.5c0.1-0.2,0.3-0.4,0.6-0.4c0.5,0,0.9,0,1.4,0.2
		c0.2,0.1,0.3,0.3,0.3,0.5c-0.1,0.9-0.7,2.1-1.7,2.4c-0.3,0.3-1,0.1-1-0.4C359.6,340,359.8,339.2,360,338.5z M180.1,393.7
		c-0.2,0.3-0.2,0.5-0.6,0.5c-0.5,0-1.3,0-1.8-0.2c-0.6-0.3-0.9-0.8-0.9-1.4c-0.2-0.6-0.3-1.2,0.4-1.5c0.4-0.2,0.8-0.1,1.2,0.1
		c0.2,0,0.3,0.1,0.5,0.2c0.2,0.1,0.3,0.3,0.5,0.3c0.6,0.3,0.4-0.1,0.8,0C181.1,391.9,180.3,393.3,180.1,393.7z"/>
	<path class="st0" d="M325.1,128.5c-1.1-2.2-2.3-4.3-3.6-6.4c-1.3-2.1-3.1-3.8-4.6-5.7c-1.5-1.9-3.1-3.7-4.7-5.5
		c-1.7-1.8-3.4-3.4-5.3-5c-1.8-1.6-3.3-3.7-5.3-5.1c-2-1.4-4.1-2.6-6.2-3.8c-2.1-1.2-4.5-1.8-6.7-2.8c-2.2-0.9-4.5-1.7-6.8-2.4
		c-2.3-0.7-4.7-1.1-7-1.6c-2.4-0.5-4.7-0.8-7.1-1c-2.4-0.2-4.8-0.6-7.2-0.6c-2.4,0-4.7,0-7,0.2c-2.3,0.2-4.8,0-7,0.5
		c-2.3,0.5-4.6,1-6.9,1.7c-2.2,0.7-4.5,1.6-6.6,2.5c-2.2,0.9-4,2.4-6.1,3.5c-2.1,1.1-4,2.5-5.9,3.8c-1.9,1.3-4.3,2.1-6.1,3.6
		c-1.8,1.5-3.4,3.2-5.1,4.9c-1.7,1.7-3.2,3.5-4.6,5.3c-1.5,1.8-2.5,4-3.8,5.9c-1.3,1.9-2.8,3.7-3.9,5.8c-1.1,2.1-1.7,4.3-2.6,6.5
		c-0.9,2.1-2.5,4-3.2,6.3c-0.7,2.2-0.7,4.6-1.2,7c-0.5,2.3-0.7,4.6-0.9,6.9c-0.2,2.3-0.8,4.6-0.8,7c0,2.5,2.2,4.5,4.7,4.6
		c0.4-0.3,0.7-0.7,0.7-1.5c0-0.3,0.4-0.5,0.6-0.3c0,0,0,0,0,0c0,0,0,0,0,0c0.6,0.2,1.3,0.5,2,0.5c0,0,0.1,0,0.1,0
		c1-0.8,1.6-2,1.6-3.3c0-2.4-0.6-4.7-0.4-7c0.3-2.3,1.2-4.6,1.7-6.8c0.5-2.3,1.5-4.4,2.3-6.6c0.8-2.2,1.1-4.6,2.1-6.7
		c1-2.1,2.1-4.2,3.4-6.1c1.2-2,2.6-3.9,4-5.7c1.5-1.8,3-3.6,4.7-5.2c1.6-1.6,3.6-3,5.4-4.4c1.8-1.5,3.5-3.2,5.5-4.4
		c2-1.2,4.4-1.7,6.5-2.7c2.1-1,4-2.6,6.2-3.3c2.2-0.8,4.5-1.3,6.8-1.8c2.3-0.5,4.5-1.2,6.9-1.4c2.3-0.3,4.7,0.1,7,0.1
		c2.3,0,4.7-0.1,7,0.2c2.3,0.3,4.6,0.6,6.9,1.1c2.3,0.5,4.5,1.3,6.7,2c2.2,0.8,4.3,1.8,6.4,2.8c2.1,1,4,2.3,6,3.5
		c2,1.2,3.8,2.6,5.6,4c1.8,1.4,3.9,2.6,5.5,4.3c1.6,1.6,3.1,3.5,4.5,5.3c1.4,1.8,2.6,3.8,3.8,5.8c1.2,1.9,2.2,4,3.2,6.1
		c1.1,2.3,4.4,3.4,6.7,2.3C325.1,134.1,326.2,130.8,325.1,128.5z M226.9,103.5c-0.8,0.7-1.9,1.5-3,1.5c-0.5,0-0.7-0.5-0.5-0.9
		c0.1-0.3,0.3-0.5,0.5-0.7c0.5-0.2,1-0.4,1.4-0.8c0.5-0.4,0.6-1,1.1-1.5c0,0,0.1-0.1,0.1-0.1c0,0,0.1-0.1,0.1-0.1
		c0.1,0,0.1-0.1,0.2-0.1c0,0,0.1-0.1,0.1-0.1c0.6-0.3,1.3-0.1,1.7,0.4C228.5,102.2,227.6,103,226.9,103.5z"/>
	<path class="st0" d="M187.8,103.1c-2.7-2.2-2.6-2.2-5.3-4.4c-0.2-0.2-0.4-0.3-0.5-0.4c-0.2,0-0.4,0-0.6-0.1
		c-0.4,0.1-0.8,0.1-1.2,0.1c-0.1,0-0.1-0.1-0.2-0.1c-0.8,0-1.5-0.1-2.2-0.6c-0.2-0.2,0-0.6,0.2-0.6c0.4,0,0.9,0,1.1-0.2
		c0-0.1,0.1-0.2,0.2-0.2c0,0,0,0,0,0c0.1-0.1,0.1-0.3,0.1-0.4c0-0.1,0-0.1,0-0.2c-0.5-0.5-1.1-1-2.1-1.8c-2.7-2.2-3.1-1.6-5.8-3.7
		c-2.7-2.2-2.5-2.4-5.1-4.6c-2.7-2.2-2.5-2.4-5.1-4.6c-2.7-2.2-2.9-1.9-5.6-4c-2.7-2.2-2.8-2.1-5.4-4.2c-2.7-2.2-2.9-1.8-5.6-4
		c-2.7-2.2-2.3-2.6-5-4.8c-2.7-2.2-2.5-2.3-5.2-4.5c-0.5-0.4-0.9-0.6-1.5-0.7c-1.5-1-4.5,0.5-5.5,1.7c-1.3,1.5-1.3,3.4-0.4,4.9
		c0.2,0.7,0.6,1.3,1.2,1.8c2.7,2.2,2.8,2,5.4,4.2c2.7,2.2,2.9,1.9,5.5,4.1c2.7,2.2,2.3,2.6,5,4.8c2.7,2.2,2.8,2,5.5,4.2
		c2,1.6,2.4,2.2,3.7,3.3c0.8,0.2,1.4-0.6,1.9-1.2c0.1-0.1,0.4-0.1,0.5,0.1c0.1,0.2,0.2,0.4,0.4,0.6c0.1,0.2,0.1,0.4,0.1,0.6
		c0.1,0.6,0.3,0.9,0.5,1.5c0.2,0.4,0.1,1,0.5,1.3c0.1,0.1,0.2,0.1,0.4,0.2c0.9,0.4,1.7,0.7,3.1,1.9c2.7,2.2,2.1,2.8,4.8,5
		c2.7,2.2,2.8,2,5.5,4.1c2.7,2.2,2.9,1.9,5.5,4.1c2.7,2.2,2.4,2.5,5,4.7c0.9,0.7,2.1,0.6,3.1,0.6c1.3,0,2.4-0.6,3.3-1.7
		C189.7,107.5,189.8,104.7,187.8,103.1z"/>
	<path class="st0" d="M224.9,67.5c-1.6-3.4-1.7-3.4-3.2-6.8c-1.6-3.4-1.9-3.2-3.5-6.6c-1.6-3.4-1.1-3.6-2.6-7
		c-1.6-3.4-2-3.2-3.5-6.6c-1.6-3.4-1.2-3.6-2.8-7c-1.1-2.3-3.9-3.6-6.2-2.5c-2.3,1.1-3.5,4.2-2.5,6.5c1.6,3.4,1.5,3.4,3.1,6.8
		c1.6,3.4,2,3.2,3.5,6.6c1.6,3.4,1.7,3.3,3.3,6.7c1.6,3.4,1.1,3.6,2.6,7c1.6,3.4,1.7,3.3,3.3,6.7c1.6,3.4,2,3.2,3.6,6.6
		c0.8,1.7,2.1,3.1,3.9,3.1c0.6,0,1.5,0,2.1-0.3c2.3-1.1,2.8-4,1.7-6.4C226.1,71,226.5,70.9,224.9,67.5z"/>
	<path class="st0" d="M267.8,70c-0.1,1,0,1.9,0.3,2.7c0,0.3,0.1,0.6,0.2,0.8c0.5,1.2,2,1.8,3.2,2c1.1,0.1,2-0.2,2.7-0.8
		c1.2-0.7,2-1.9,2.2-3.4c0.5-3.3,0.7-3.3,1.2-6.7c0.5-3.3,0.6-3.3,1.1-6.7c0.5-3.3,0.4-3.4,0.9-6.7c0.5-3.4,0.6-3.3,1.1-6.7
		c0.5-3.4,0.1-3.4,0.6-6.8c0.3-2.3-0.9-4-3-4.6c-0.9-0.3-1.9-0.5-2.8-0.4c-1.4,0.1-2.1,0.8-2.5,1.7c-0.4,0.5-0.7,1.1-0.9,1.8
		c-0.5,3.3-0.3,3.4-0.8,6.7c-0.5,3.3-0.8,3.3-1.3,6.7c-0.5,3.3-0.4,3.4-0.9,6.7c-0.5,3.4,0.2,3.5-0.3,6.8
		C268.3,66.6,268.3,66.6,267.8,70z"/>
	<path class="st0" d="M339.6,60.6c-1.9-1.7-4.6-1.4-6.3,0.5c-2.6,2.9-2.5,2.9-5.1,5.8c-2.6,2.9-2.7,2.8-5.2,5.7
		c-2,2.2-2.5,2.7-3.8,4.1c0,0.1,0,0.1,0,0.2c0,0.3,0.1,0.6,0.3,0.9c0.1,0.1,0.2,0.1,0.3,0.2c0.3,0.3,0.5,0.6,0.5,1c0,0,0,0.1,0,0.1
		c-0.2,0.3-0.6,0.6-1,0.7c-0.9,0-1.7,0-2.6,0.1c-0.3,0-0.7,0.1-1,0.2c-1.1,1.1-1.9,1.5-3.7,3.5c-1.7,1.9-0.9,4.9,1,6.5
		c0.9,0.8,1.7,1.4,2.8,1.4c1.3,0,2.9-0.2,3.8-1.2c2.6-2.9,2.4-3.1,4.9-6c2.6-2.9,2.4-3,5-5.9c2.6-2.9,2.4-3,5-5.9
		c2.6-2.9,2.6-2.9,5.2-5.8C341.7,65.1,341.5,62.3,339.6,60.6z"/>
	<path class="st0" d="M372,47.6c-1.9-1.5-4.1-2.6-6-4c-2-1.4-3.6-3.3-5.6-4.6c-2-1.4-4.2-2.4-6.2-3.7c-2-1.3-4.2-2.5-6.2-3.7
		c-2.1-1.2-4.1-2.7-6.2-3.8c-2.1-1.2-4.3-2.2-6.5-3.3c-2.2-1.1-4.2-2.3-6.4-3.4c-2.2-1-4.4-2-6.6-3c-2.2-1-4.5-1.8-6.7-2.7
		c-2.2-0.9-4.6-1.6-6.9-2.4c-2.3-0.8-4.8-1-7.1-1.7c-2.3-0.7-4.4-2.2-6.7-2.9c-2.3-0.7-4.7-1.2-7-1.8c-2.3-0.6-4.6-1.4-7-1.9
		c-2.4-0.5-4.7-1-7.1-1.4c-2.4-0.4-4.8-0.8-7.2-1.2c-2.4-0.4-4.8-0.5-7.2-0.8c-2.4-0.3-4.8-0.5-7.2-0.7c-2.4-0.2-4.8-0.4-7.2-0.6
		c-2.4-0.1-4.8,0.3-7.3,0.3c-2.4-0.1-4.8-0.1-7.2-0.1c-2.4,0-4.8-0.3-7.1-0.2c-2.4,0.1-4.8,0.1-7.1,0.2c-2.4,0.1-4.8-0.1-7.2,0.2
		c-2.4,0.2-4.8,0.3-7.1,0.6c-2.4,0.3-4.6,1.5-7,1.8c-2.4,0.4-4.7,0.6-7.1,1c-0.2,0-0.3,0.1-0.5,0.1c-0.8,0-1.5,0.1-2.3,0.6
		c-0.3,0.2-0.8,0.5-1.2,0.9c-0.7,0.4-1.4,0.6-2.1,0.7c-0.4-0.1-0.6-0.3-0.5-0.7c0,0,0,0,0,0c0,0,0,0,0-0.1c0.1-0.1,0.2-0.2,0.2-0.3
		c0.2-0.1,0.2-0.3,0.1-0.4c-0.7-1.5-3.1,0.3-3.9,0.7c-2.7,1.1-5.4,1.9-8.2,2.5c-0.8,0.1-1.7,0.3-2.5,0.5c-2.3,0.7-4.5,1.5-6.8,2.2
		c-2.3,0.7-4.6,1.3-6.9,2c-2.2,0.8-4.5,1.6-6.7,2.5c-1.6,0.6-3.2,1.3-4.8,1.9c-1,0.3-1.9,0.5-2.9,0.7c-1.8,0.4-4,0.5-5.7,1.3
		c-0.4,0.1-0.7,0.3-1,0.5c-0.6,0.3-1.2,0.6-1.8,1c-1.8,1.2-3.1,3-4.8,4.3c-1.6,0.9-3.2,1.7-4.8,2.6c-2.1,1.1-4.1,2.4-6.2,3.6
		c-2.1,1.2-4.2,2.3-6.2,3.5c-2,1.3-3.9,2.7-5.9,4c-2,1.3-4.4,2.1-6.3,3.5c-1.9,1.4-3.4,3.4-5.3,4.8c-1.9,1.4-3.6,3.1-5.5,4.6
		c-1.9,1.5-4,2.6-5.8,4.2c-1.8,1.5-3.8,2.9-5.6,4.5c-1.8,1.6-2.9,3.8-4.7,5.5c-1.7,1.7-3.5,3.2-5.1,4.9c-1.7,1.7-3.4,3.3-5,5.1
		c-1.6,1.8-3.1,3.6-4.6,5.4c-1.5,1.8-3.2,3.5-4.7,5.4c-1.5,1.9-2.8,3.9-4.2,5.8c-1.4,1.9-3.4,3.4-4.8,5.4c-1.4,1.9-2.2,4.3-3.5,6.3
		c-1.3,2-3,3.7-4.3,5.7c-1.3,2-2,4.4-3.2,6.4c-1.2,2.1-2.7,3.9-3.9,6c-1.1,2.1-1.8,4.4-2.9,6.5c-1.1,2.1-2.1,4.3-3.1,6.4
		c-1,2.2-1.9,4.4-2.8,6.6c-0.9,2.2-2.6,4.1-3.5,6.3c-0.9,2.2-1.2,4.6-2,6.9c-0.8,2.2-1.6,4.5-2.3,6.8c-0.7,2.3-1.2,4.6-1.9,6.9
		c-0.6,2.3-1.4,4.5-2,6.9c-0.6,2.3-1.5,4.5-2,6.9c-0.5,2.3-0.6,4.7-1,7.1c-0.4,2.3-1.3,4.6-1.7,7c-0.4,2.3-0.3,4.8-0.6,7.1
		c-0.2,1.8,0.6,3.5,2,4.5c0.7,0.9,1.8,1.4,3,1.4c0.8,0,1.5-0.4,2-1c1.3-0.8,2.3-2.3,2.5-3.8c0.3-2.4,0.7-4.7,1.1-7.1
		c0.4-2.4,0-4.8,0.5-7.2c0.4-2.4,1.4-4.6,1.9-6.9c0.5-2.3,1.3-4.6,1.9-6.9c0.6-2.3,0.6-4.8,1.3-7.1c0.7-2.3,1.6-4.5,2.3-6.8
		c0.7-2.3,1.9-4.4,2.7-6.6c0.8-2.2,1.8-4.4,2.7-6.6c0.9-2.2,1.3-4.6,2.2-6.8c1-2.2,2.4-4.1,3.5-6.3c1-2.2,1.6-4.5,2.7-6.7
		c1.1-2.1,1.9-4.4,3.1-6.5c1.2-2.1,2.7-4,3.9-6c1.2-2,2.8-3.9,4.1-5.9c1.3-2,2.1-4.4,3.4-6.3c1.4-2,3.4-3.5,4.8-5.4
		c1.4-1.9,3-3.7,4.5-5.6c1.5-1.9,2.7-3.9,4.3-5.7c1.5-1.8,3.1-3.6,4.7-5.4c1.6-1.8,3.4-3.4,5-5.1c1.7-1.7,2.9-3.9,4.6-5.5
		c1.7-1.7,4-2.8,5.7-4.4c1.6-1.4,2.8-3.3,4.3-4.8c0.7-0.3,1.5-0.5,2.2-0.7c0.8-0.3,1.6-0.8,2.1-1.5c0-0.3,0-0.5,0.1-0.8
		c-0.1-0.1-0.2-0.1-0.3-0.2c-0.1-0.1-0.2-0.1-0.2-0.2c-0.2-0.1-0.4-0.3-0.5-0.5c0-0.1,0-0.3,0-0.4c0.4-0.4,1.1-0.6,1.6-0.7
		c0.5-0.1,1-0.3,1.5-0.6c1.5-1.2,3.1-2.2,4.6-3.3c0,0,0,0,0.1,0c3.5-3.5,7.9-6.2,12.3-8.5c0.2-0.2,0.4-0.4,0.6-0.6
		c1.8-1.2,3.7-2.3,5.5-3.4c2-1.2,4-2.3,6-3.5c0.1-0.2,0.2-0.4,0.3-0.6c0.1-0.2,0.1-0.4,0.2-0.6c0-1,0.8-1.6,1.6-1.7
		c0.1,0,0.2,0,0.3,0c0.1,0,0.1,0,0.2,0c0.2,0,0.3,0.1,0.5,0.1c0.1,0,0.1,0,0.2,0c0.1,0,0.1,0,0.2,0.1c0.1,0,0.2,0,0.3,0.1
		c0.6,0.1,1.1-0.2,1.6-0.5c0.3-0.5,0.8-0.8,1.4-1.1c0,0,0.1,0,0.1,0c0.3-0.2,0.7-0.3,1.1-0.4c2-1,3.8-2.1,5.6-3.3
		c2.7-1.7,5.8-2,8.8-2.7c1.3-0.6,2.5-1.1,3.8-1.6c2.2-0.9,4.3-2.2,6.5-3c2.2-0.8,4.5-1.7,6.7-2.5c2.3-0.8,4.5-1.5,6.8-2.2
		c2.3-0.7,4.6-1.3,6.9-1.9c2.3-0.6,4.8-0.4,7.2-0.9c2.3-0.5,4.5-1.6,6.9-2.1c2.3-0.5,4.7-0.8,7.1-1.1c2.4-0.4,4.7-0.9,7.1-1.2
		c2.4-0.3,4.8-0.3,7.2-0.5c2.4-0.2,4.7-0.7,7.1-0.9c2.4-0.2,4.8,0,7.2-0.1c2-0.1,4.1,0.1,6.1,0.2c0.8,0.1,1.6,0.2,2.4,0.3
		c1.8,0.2,3.4,0.7,5.2,1c0.6,0.1,1.1,0,1.7,0c2.4,0,4.7-0.4,7.1-0.6c2.2,0.2,4.3,0.4,6.5,0.6c2.4,0.2,4.8,0.7,7.2,1
		c2.4,0.3,4.8,0.5,7.2,0.9c2.4,0.4,4.8,0.6,7.2,1c2.4,0.5,4.8,1,7.1,1.6c2.4,0.5,4.8,1.1,7.1,1.7c2.4,0.6,4.6,1.8,6.9,2.5
		c2.3,0.7,4.7,1.4,7,2.1c2.3,0.8,4.6,1.5,6.9,2.3c1.7,0.7,3.6,1,5.4,1.6c0.5,0.3,1.1,0.5,1.7,0.8c1,0.6,1.8,1.4,2.9,1.8
		c0.5,0.2,0.9,0.3,1.5,0.2c0.8-0.2,1.5-0.9,2.4-1.2c0.2,0,0.4-0.1,0.5-0.1c0.2,0,0.5,0.1,0.7,0.2c0.2,0.1,0.3,0.2,0.5,0.4
		c0.3,0.2,0.5,0.5,0.8,0.7c0.5,0.6,0.8,1.3,1.1,2c0.5,0.5,1,0.8,1.6,1.2c0.5,0.2,0.9,0.4,1.4,0.6c2.2,1.1,4.2,2.5,6.4,3.6
		c2.1,1.2,4.2,2.5,6.3,3.7c2.1,1.2,4,2.7,6.1,4c2.1,1.3,4.5,2,6.5,3.4c2,1.4,4,2.8,6,4.2c2,1.4,3.7,3.1,5.7,4.6c2,1.6,4.9,1.1,6.5-1
		C374.2,52.2,374,49.2,372,47.6z M130.5,29.4c-0.3,0.3-0.6,0.7-0.8,1c-0.4,0.8-1.6,2.1-2.5,1.5c-0.8-0.5-1.5-1.9-0.9-2.7
		c0.8-1.1,3.2-0.6,4.2-0.2C130.5,29.1,130.6,29.3,130.5,29.4z"/>
	<path class="st0" d="M137.5,18.9C137.5,18.9,137.5,18.9,137.5,18.9C137.4,18.9,137.4,18.9,137.5,18.9
		C137.4,18.9,137.5,18.9,137.5,18.9z"/>
	<path class="st0" d="M462.3,231.6c0-2.5-0.6-4.9-0.7-7.4c-0.1-2.5,0.1-4.9-0.1-7.4c-0.2-2.5,0.3-5,0.1-7.4
		c-0.2-2.5-0.9-4.9-1.2-7.3c-0.2-1.8-0.4-3.7-0.6-5.5c0,0,0,0,0,0c0,0,0-0.1,0-0.1c0-0.1-0.1-0.2-0.2-0.2c-0.3,0-0.8-0.1-1.1,0.1
		c-0.1,0.1-0.1,0.2-0.2,0.2c-0.3,0.3-0.8,0.3-1.2,0.4c-0.2,0-0.3,0-0.5-0.1c-0.1-0.1-0.3-0.2-0.4-0.4c0-0.1-0.1-0.1-0.1-0.2
		c0-0.4,0.2-0.9,0.4-1.2c0.4-0.5,1-0.7,1.5-0.8c0.3-0.3,0.7-0.6,0.8-1.1c0.1-0.2,0.1-0.4,0.1-0.6c-0.3-1.7-0.6-3.4-0.9-5.1
		c-0.5-2.4-0.9-4.8-1.5-7.2c-0.6-2.5-3.2-4.1-5.7-3.5c-2.5,0.6-4,3.1-3.4,5.6c0.5,2.3,1.3,4.6,1.7,6.9c0.4,2.3,0.6,4.7,1,7
		c0.4,2.3,0.4,4.7,0.7,7.1c0.3,2.3,0.8,4.7,1,7c0.2,2.4,0.5,4.7,0.6,7.1c0.1,2.4,0.7,4.7,0.8,7.1c0.1,2.4,0,4.7,0,7.1
		c0,2.4-0.5,4.9-0.6,7.3c-0.1,2.4-0.2,4.9-0.4,7.3c-0.2,2.4-0.2,4.9-0.4,7.3c-0.2,2.4,0,4.9-0.3,7.3c-0.3,2.4-0.6,4.8-1,7.2
		c-0.4,2.4-1.5,4.7-2,7.1c-0.5,2.4-0.6,4.8-1.1,7.2c-0.5,2.4-1.5,4.6-2.1,7c-0.5,1.9-0.8,3.9-1.3,5.8c0,0.9,0.1,1.8,0.1,2.6
		c0,0.2,0.1,0.3,0.1,0.5c0.1,0.2,0.1,0.4,0.2,0.6c0.2,0.6,0.4,1.2,0.4,1.9c0,0.3-0.3,0.5-0.5,0.4c-0.8-0.2-1.5-0.1-2.1,0.4
		c-0.2,0.6-0.4,1.3-0.6,1.9c-0.8,2.3-2.2,4.4-3,6.7c-0.4,1.1-0.7,2.3-1,3.4c0.1,0.6,0.1,1.2-0.1,1.8c-0.1,0.2-0.1,0.3-0.2,0.4
		c-0.4,0.1-0.8,0.2-1.2,0.2c0,0-0.1,0-0.1,0c-0.1,0-0.2,0.1-0.4,0.1c-0.6,0.2-1.2,0.5-1.3,1.3c-0.1,0.5,0.2,0.9,0.4,1.3
		c0.2,0.8,0.1,1.5,0,2.2c-0.4,0.9-0.9,1.8-1.3,2.7c-1,2.2-2.1,4.4-3.2,6.5c-1.1,2.2-2.2,4.3-3.3,6.5c-1.1,2.1-2.3,4.3-3.5,6.4
		c-1.2,2.1-2.2,4.4-3.5,6.4c-1.3,2.1-3.2,3.7-4.5,5.7c-1.4,2-2.2,4.4-3.6,6.4c-1.4,2-3.5,3.5-4.9,5.4c-1.5,1.9-2.4,4.3-3.9,6.2
		c-1.5,1.9-3.2,3.6-4.8,5.5c-1.6,1.8-3.3,3.5-5,5.3c-1.7,1.8-3.8,3.1-5.5,4.8c-1.7,1.7-3.3,3.6-5,5.2c-1.8,1.7-3.4,3.4-5.3,5
		c-1.8,1.6-3.5,3.4-5.4,4.9c-1.9,1.5-4,2.8-5.9,4.2c-1.9,1.5-3.6,3.3-5.6,4.7c-2,1.4-4,2.8-6,4.2c-2,1.4-4,2.8-6,4.1
		c-2.1,1.3-4.2,2.4-6.3,3.6c-2.1,1.2-4.2,2.4-6.4,3.5c-2.1,1.1-4.2,2.4-6.4,3.5c-2.2,1.1-4.4,2-6.7,3c-2.2,1-4.6,1.5-6.9,2.4
		s-4.6,1.6-6.8,2.5c-2.3,0.9-4.3,2.3-6.6,3.1c-2.3,0.8-4.8,0.9-7.1,1.6c-2.3,0.7-4.5,2.1-6.8,2.7c-2.3,0.6-4.8,0.7-7.2,1.3
		c-2.4,0.5-4.7,1.3-7.1,1.8c-2.4,0.5-4.8,0.9-7.2,1.3c-2.4,0.4-4.8,1-7.2,1.3c-2.4,0.3-4.8,0.5-7.3,0.7c-2.4,0.2-4.9-0.1-7.3,0.1
		c-2.4,0.2-4.8,1.1-7.2,1.2c-2.4,0.1-4.9-0.3-7.3-0.3c-2.5,0-4.9,0-7.4-0.1c-2.5-0.1-5,0.2-7.4,0c-2.5-0.2-4.9-1-7.3-1.3
		c-2.5-0.2-4.9-0.5-7.3-0.8c-2.4-0.3-4.8-1-7.3-1.4c-2.4-0.4-5-0.3-7.4-0.8c-2.4-0.5-4.8-1.2-7.2-1.8c-2.4-0.6-4.7-1.3-7.1-2
		c-2.4-0.6-4.7-1.3-7.1-2c-2.4-0.7-4.7-1.4-7-2.2c-2.3-0.8-4.8-1.2-7.1-2c-2.3-0.9-4.4-2.2-6.7-3.2c-2.3-1-4.4-2.2-6.7-3.2
		c-2.2-1-4.4-2.2-6.6-3.3c-2.2-1.1-4.7-1.7-6.8-2.9c-2.2-1.2-4-2.9-6.1-4.2c-2.1-1.2-4.2-2.3-6.2-3.6c-0.7-0.4-1.4-0.9-2.1-1.3
		c-0.3,0-0.6,0-1,0c-0.7,0.1-1.1,0.5-1.8-0.1c-0.5-0.4-0.6-1.2-0.8-1.7c-0.1-0.3-0.3-0.5-0.5-0.8c-1.9-1.3-3.8-2.8-5.7-4.2
		c-1.9-1.4-4-2.7-5.9-4.1c-1.9-1.5-4-2.7-5.8-4.2c-1.8-1.5-3.4-3.3-5.2-4.9c-1.8-1.6-3.4-3.4-5.1-5c-1.7-1.6-3.8-3-5.4-4.7
		c-1.7-1.7-3-3.7-4.7-5.5c-1.6-1.7-3.4-3.3-5-5.1c-1.6-1.8-2.7-3.9-4.3-5.8c-1.5-1.8-3-3.7-4.4-5.6c-1.5-1.9-3.5-3.4-4.9-5.3
		c-1.4-1.9-2.6-4-3.9-6c-1.3-2-2.9-3.8-4.2-5.8c-1.3-2-1.9-4.4-3.1-6.5c-1.3-2.2-4.2-2.4-6.4-1.2c-2.2,1.3-3.2,3.8-1.9,6
		c1.2,2,2.8,3.8,4,5.8c1.2,2,2.1,4.2,3.3,6.2c1.3,2,3.1,3.5,4.5,5.5c1.4,1.9,2.6,3.9,4.1,5.7c1.4,1.9,2.6,3.9,4.1,5.7
		c1.5,1.8,3,3.6,4.6,5.3c1.5,1.8,2.6,4,4.1,5.7c1.6,1.7,3.4,3.3,5,5s3.3,3.3,5,4.9c1.7,1.6,3.2,3.4,4.9,5c1.7,1.6,3.6,3,5.4,4.5
		c1.8,1.5,3.7,2.9,5.5,4.4c1.8,1.5,3.9,2.6,5.7,4c1.9,1.4,3.4,3.3,5.3,4.7c1.9,1.4,3.8,2.8,5.7,4.1c1.9,1.3,4,2.5,6,3.7
		c2,1.2,4.2,2.1,6.2,3.3c2.1,1.2,4.1,2.6,6.2,3.8c2.1,1.2,4.2,2.4,6.3,3.5c2.2,1.1,4.5,1.9,6.6,2.9c2.2,1,4.2,2.6,6.4,3.5
		c2.2,1,4.8,1,7,1.9c2.2,0.9,4.2,2.5,6.5,3.3c2.3,0.8,4.7,1.2,7,1.9c2.3,0.7,4.6,1.6,6.9,2.3c2.3,0.7,4.8,0.8,7.1,1.3
		c2.3,0.6,4.7,1.2,7,1.8c2.4,0.5,4.7,0.9,7.1,1.3c2.4,0.4,4.6,1.6,7,1.9c2.4,0.4,4.8,0.2,7.2,0.5c1,0.4,2,0.8,3.1,1.1
		c0.5,0.1,1,0.2,1.5,0.3c1,0.2,2,0.3,3.1,0.3c0.2,0,0.4,0.1,0.5,0.3c1.1,0.1,2.2,0.4,3.3,0.9c0.8,0.4,1.5,1,2.3,1.2
		c0.9,0.2,1.8,0,2.7-0.2c0.7-0.4,1.4-0.7,2.2-0.9c1.2-0.7,2.5-0.7,4-0.6c0.5,0,1,0,1.5,0.1c0.1,0,0.2,0,0.3,0c1.5,0,3.1,0,4.6,0
		c2.4,0,4.9-0.4,7.3-0.5c2.4-0.1,4.9,0.1,7.3-0.1c2.4-0.1,4.8-0.9,7.2-1.1c2.4-0.2,4.9-0.2,7.3-0.5c2.4-0.3,4.9-0.1,7.3-0.5
		c2.4-0.4,4.6-1.7,7-2.1c2.4-0.5,4.8-0.9,7.1-1.4c2.4-0.5,4.8-0.7,7.2-1.3c2.4-0.6,4.7-1.4,7-2.1c2.3-0.7,4.6-1.5,6.9-2.3
		c2.3-0.7,4.8-0.9,7.1-1.7c2.3-0.8,4.4-2.2,6.6-3.1c2.3-0.9,4.4-2.1,6.6-3c2-0.9,4.2-1.2,6.2-2c1-0.6,2-1.2,3.1-1.6c0,0,0,0,0.1,0
		l0,0c0,0,0.1,0,0.1-0.1c0.1,0,0.1,0,0.2,0c0.1,0,0.1-0.1,0.2-0.1c0.4-0.2,0.8-0.4,1.2-0.5c0.7-0.1,1.3,0.1,1.9,0
		c2.3-0.3,2.1-1.2,3-2.4c0.8-1,1.9-1.6,3.2-2c0.3-0.1,0.5-0.3,0.8-0.4c2.1-1.2,4.2-2.4,6.3-3.7c2.1-1.2,4-2.8,6-4.1
		c2-1.3,3.9-2.8,5.9-4.2c2-1.4,3.9-2.8,5.9-4.2c2-1.4,4.3-2.4,6.2-3.9c1.9-1.5,3.9-2.8,5.8-4.4c1.9-1.5,3.7-3.2,5.5-4.8
		c1.8-1.6,3.1-3.8,4.9-5.5c1.8-1.7,3.8-3,5.6-4.7c1.7-1.7,3.6-3.3,5.3-5.1c1.7-1.8,2.7-4.1,4.3-5.9c1.6-1.8,3.7-3.2,5.2-5.1
		c1.6-1.9,3.1-3.8,4.5-5.7c1-1.3,2-2.6,2.9-4c1.2-1.1,2.4-2.2,3.3-3.6c0.6-0.9,1.1-1.9,1.7-3c0.3-0.4,0.6-0.8,0.8-1.1
		c1.4-2,2.4-4.3,3.7-6.3c1.3-2,3-3.9,4.2-6c1.2-2.1,1.8-4.6,2.9-6.7c1.2-2.1,2.8-4,3.9-6.1c1.1-2.2,2.1-4.4,3.1-6.6
		c1-2.2,1.8-4.5,2.8-6.7c1-2.2,1.9-4.5,2.8-6.7c0.9-2.3,2.3-4.3,3.1-6.6c0.8-2.3,1.3-4.7,2.1-7c0.7-2.3,1.2-4.7,1.9-7
		c0.7-2.3,1.4-4.7,2-7c0.6-2.4,1.4-4.6,2-7c0.5-2.4,0.5-4.9,0.9-7.2c0.4-2.4,1.1-4.7,1.5-7.1c0.4-2.4,1.1-4.7,1.4-7.2
		c0.3-2.4-0.2-4.9,0.1-7.3c0.2-2.4,1.3-4.8,1.4-7.2c0.1-2.4,0.2-4.9,0.3-7.3C462.6,236.4,462.3,234,462.3,231.6z M39.3,355.3
		c-0.2,0.2-0.5,0.4-0.8,0.6c-0.2,0.1-0.4,0.1-0.6-0.1c-1.4-1.2-1.2-3.4,0-4.6c0.4-0.3,0.9-0.1,1,0.4c0.2,1,0.5,2,0.6,3
		C39.7,355,39.5,355.2,39.3,355.3z M174.5,451.6c-0.6,0.3-1.5,0.2-2.3-0.1c-0.7-0.2-1.3-0.5-1.6-0.8c-0.5-0.6-0.2-1.9,0.1-2.2
		c0.2-0.2,0.8,0,1.6,0.6c1,0.3,1.8,1,2.3,1.9C174.8,451.1,174.7,451.5,174.5,451.6z M176.2,452.3c-0.3,0-0.5-0.3-0.4-0.6
		c0.1-0.5,0.2-1,0.2-1.5c0-0.2,0.2-0.4,0.4-0.3c0.3,0.1,0.5,0.3,0.7,0.5c0.3,0.2,0.5,0.5,0.5,0.9C177.5,452,176.8,452.4,176.2,452.3
		z M417.9,364.2c0,0.2-0.1,0.3-0.1,0.5c-0.1,0.9-0.8,1.4-1.6,1.8c-0.2,0.1-0.4,0.1-0.7,0.1c-0.7,0.1-1.4,0.1-2.1-0.1
		c-0.3-0.1-0.5-0.4-0.2-0.7c0.7-0.6,1.6-1,2.3-1.5c0.4-0.3,0.7-0.7,0.9-1.1c0.1-0.2,0.1-0.5,0.3-0.6c0.4-0.2,0.8,0,1,0.3
		C418.1,363.4,418,363.7,417.9,364.2C417.9,364.1,417.9,364.1,417.9,364.2z"/>
	<path class="st0" d="M213.2,462.6c0.1,0,0.2,0,0.3,0c0,0,0,0.1,0,0.1C213.4,462.7,213.3,462.6,213.2,462.6z"/>
	<path class="st0" d="M169,335.4c-0.3-2.5-0.8-4.8-1.6-7.1c-0.9-2.3-2.1-4.5-3.6-6.7c-1.4-2.1-2.5-4.4-4.1-6.4
		c-1.6-2-3.7-3.6-5.3-5.4c-1.1-1.3-2.2-2.5-3.2-3.8c-1.6-1.9-2.8-3.7-3.9-5.5c-1.3-2.1-1.9-4.3-2.5-6.2c-0.7-2.3-1-4.5-0.6-6.6
		c0.4-2.3-0.8-4.8-3.1-5.5c-2.2-0.7-4.5,0.8-5.4,2.9c-0.6,1.4-1.9,3-2.6,5.1c-0.6,1.6-1,3.5-1.7,5.5c-0.1,0.2-0.1,0.4-0.2,0.6
		c-0.1,0.3-0.1,0.6-0.2,0.9c-0.1,0.2-0.2,0.5-0.2,0.7c-0.3,1.3,1,3.5-0.1,4.6c0,0-0.1,0-0.1,0c-0.2,0.1-0.3,0-0.5,0c0,0-0.1,0-0.1,0
		c-0.1,0-0.2,0-0.2,0c-0.3,0.1-0.5,0.2-0.8,0.3c-0.7,2.1-1.6,4.3-2.5,6.5c-0.8,2.2-1.3,4.6-2.3,6.9c-0.9,2.2-1.9,4.4-2.9,6.6
		c-1,2.2-2.3,4.3-3.4,6.4c-1.1,2.1-1.8,4.6-3,6.6c-1.3,2.1-3.1,3.8-4.5,5.7c-1.5,2-3.1,3.7-4.8,5.4c-1.7,1.8-3.3,3.5-5.2,5
		c-1.9,1.5-4.1,2.5-6.2,3.6c-2.2,1-4.4,1.7-6.7,2.2c-2.3,0.5-4.6,1.2-7.1,1.1c-2.6-0.1-5,1.7-5.1,4.3s2.1,5.1,4.6,5.2
		c0.7,0,1.4-0.2,2.1-0.2c2.5,0,4.9-0.3,7.2-0.7c2.4-0.5,4.8-1,6.9-1.9c2.2-0.9,4.5-1.8,6.5-3.1c2-1.3,3.9-2.9,5.7-4.5
		c1.8-1.6,3.1-3.7,4.7-5.5c1.6-1.8,3.4-3.4,4.8-5.3c1.4-1.9,2.5-4.1,3.8-6.1c1.3-2,3-3.8,4.1-5.9c1.1-2.1,1.9-4.4,2.9-6.6
		c1-2.2,2-4.4,2.9-6.6c1-2.2,1.8-4.5,2.7-6.7c0.9-2.3,1.7-4.6,2.5-6.7c0.7-1.2,1.9-2.3,3.3-1.7c0.4,0.2,0.7,0.7,1.1,1
		c0.9,1.3,1.8,2.9,2.9,4.2c1,1.3,2.2,2.6,3.3,3.9c1.4,1.6,3.5,2.7,4.9,4.4c1.4,1.7,2.4,3.8,3.6,5.5c1.3,1.9,2.8,3.7,3.5,5.6
		c0.8,2.1,1.2,4.5,1.3,6.8c0.1,2.3-0.1,4.7-0.7,6.9c-0.6,2.2-2,4.2-3.3,6.1c-1,1.5-2.7,2.9-4.7,4.1c-1.7,1-3.4,1.9-5.8,1.9
		c-3.8,0.1-6.5-1-7.7-4c-0.9-2.3-0.9-5-0.4-6.5c0.5-0.8,1.1-1.8,1.9-2.3c1.6-1.1,3.6-0.5,5.4-0.2c2.1,0.8,4.3-0.5,5.5-2.5
		c1.2-2.2,0.6-4.8-1.6-6c-1.9-1-3.8-1.5-5.7-1.5c-2,0-3.8,0.9-5.6,1.8c-1.9,0.8-4,1.3-5.4,2.7c-1.5,1.4-2.7,3.4-3.4,5.5
		c-0.6,1.9-0.8,4.2-0.7,6.4c0.1,2.1,1.2,4.1,2,6c0.9,2.2,1.8,4.2,3.4,5.7c1.6,1.5,3.6,2.6,5.7,3.4c2,0.7,4.2,1.2,6.5,1.2
		c0.1,0,0.2-0.1,0.3-0.1c2.5,0,4.9-0.4,7.1-1.2c1.3-0.5,2.6-1.1,3.8-1.8c0.8-0.8,1.6-1.6,2.5-2.4c0.6-1,1-2.1,1.9-2.7
		c0.5-0.3,0.8-0.2,1.3-0.3c0.2-0.2,0.4-0.3,0.6-0.4c0.1-0.1,0.2-0.2,0.3-0.3c1.1-1.4,1.8-3.2,2.3-5.1c0.4-0.9,0.7-1.9,1.1-2.9
		c0.8-2.3,1.9-4.5,2.2-7C169.5,340.3,169.3,337.9,169,335.4z"/>
	<path class="st0" d="M337.7,236c0-2.8-2.2-5-5-5s-5.3,2.2-5.3,5s2.5,5.4,5.3,5.4S337.7,238.8,337.7,236z"/>
	<path class="st0" d="M314.6,142.1c-0.1-0.1-0.2-0.1-0.2,0c0,0.1,0,0.2,0.1,0.2C314.6,142.3,314.7,142.2,314.6,142.1z"/>
	<path class="st0" d="M150.4,72.7c0-0.1-0.3,0-0.3,0.1s0,0.2,0.1,0.1C150.2,72.9,150.4,72.7,150.4,72.7z"/>
	<path class="st0" d="M137.6,262.1c-0.1-0.1-0.2,0-0.2,0.1s0.1,0.2,0.2,0.1S137.7,262.2,137.6,262.1z"/>
	<path class="st0" d="M185.9,27.1c0-0.1-0.1-0.1-0.2-0.1c-0.1,0.1-0.1,0.2,0,0.2S186,27.2,185.9,27.1z"/>
	<path class="st0" d="M130.1,184c0-0.1-0.1-0.1-0.2,0c-0.1,0.1-0.1,0.2,0.1,0.2S130.1,184.1,130.1,184z"/>
</g>
<g id="Ebene_4">
</g>
</svg>
